<svg width="16" height="16" viewBox="0 0 16 16" fill="none" xmlns="http://www.w3.org/2000/svg">
<g clip-path="url(#clip0)">
<path d="M7.81565 1.11113L7.19693 1.73708C7.05049 1.88523 7.05049 2.12544 7.19693 2.27362L12.0447 7.17801H1.375C1.16791 7.17801 1 7.34787 1 7.55739V8.4426C1 8.65212 1.16791 8.82198 1.375 8.82198H12.0447L7.19693 13.7264C7.05049 13.8746 7.05049 14.1148 7.19693 14.2629L7.81565 14.8889C7.96209 15.037 8.19952 15.037 8.34599 14.8889L14.8902 8.26828C15.0366 8.12013 15.0366 7.87992 14.8902 7.73174L8.34596 1.11113C8.19952 0.962955 7.96209 0.962955 7.81565 1.11113Z" fill="white"/>
</g>
<defs>
<clipPath id="clip0">
<rect width="16" height="16" fill="white"/>
</clipPath>
</defs>
</svg>
