<svg width="16" height="16" viewBox="0 0 16 16" fill="none" xmlns="http://www.w3.org/2000/svg">
<path d="M5.5 4.54688V3.45312C5.5 3.27266 5.64766 3.125 5.82812 3.125H6.92188C7.10234 3.125 7.25 3.27266 7.25 3.45312V4.54688C7.25 4.72734 7.10234 4.875 6.92188 4.875H5.82812C5.64766 4.875 5.5 4.72734 5.5 4.54688ZM9.32812 4.875H10.4219C10.6023 4.875 10.75 4.72734 10.75 4.54688V3.45312C10.75 3.27266 10.6023 3.125 10.4219 3.125H9.32812C9.14766 3.125 9 3.27266 9 3.45312V4.54688C9 4.72734 9.14766 4.875 9.32812 4.875ZM5.82812 7.5H6.92188C7.10234 7.5 7.25 7.35234 7.25 7.17188V6.07812C7.25 5.89766 7.10234 5.75 6.92188 5.75H5.82812C5.64766 5.75 5.5 5.89766 5.5 6.07812V7.17188C5.5 7.35234 5.64766 7.5 5.82812 7.5ZM9.32812 7.5H10.4219C10.6023 7.5 10.75 7.35234 10.75 7.17188V6.07812C10.75 5.89766 10.6023 5.75 10.4219 5.75H9.32812C9.14766 5.75 9 5.89766 9 6.07812V7.17188C9 7.35234 9.14766 7.5 9.32812 7.5ZM7.25 9.79688V8.70312C7.25 8.52266 7.10234 8.375 6.92188 8.375H5.82812C5.64766 8.375 5.5 8.52266 5.5 8.70312V9.79688C5.5 9.97734 5.64766 10.125 5.82812 10.125H6.92188C7.10234 10.125 7.25 9.97734 7.25 9.79688ZM9.32812 10.125H10.4219C10.6023 10.125 10.75 9.97734 10.75 9.79688V8.70312C10.75 8.52266 10.6023 8.375 10.4219 8.375H9.32812C9.14766 8.375 9 8.52266 9 8.70312V9.79688C9 9.97734 9.14766 10.125 9.32812 10.125ZM14.25 13.5156V14.5H2V13.5156C2 13.3352 2.14766 13.1875 2.32812 13.1875H2.86133V1.15625C2.86133 0.792578 3.15391 0.5 3.51758 0.5H12.7324C13.0961 0.5 13.3887 0.792578 13.3887 1.15625V13.1875H13.9219C14.1023 13.1875 14.25 13.3352 14.25 13.5156ZM4.17383 13.1602H7.25V11.3281C7.25 11.1477 7.39766 11 7.57812 11H8.67188C8.85234 11 9 11.1477 9 11.3281V13.1602H12.0762V1.83984L4.1875 1.8125L4.17383 13.1602Z" fill="#0A0A0A"/>
</svg>
