<svg width="88" height="88" viewBox="0 0 88 88" fill="none" xmlns="http://www.w3.org/2000/svg">
<rect width="88" height="88" rx="44" fill="#F4F4F4"/>
<path d="M61.0625 30.875H54.5V26.9375C54.5 24.7637 52.7363 23 50.5625 23H37.4375C35.2637 23 33.5 24.7637 33.5 26.9375V30.875H26.9375C24.7637 30.875 23 32.6387 23 34.8125V55.8125C23 57.9863 24.7637 59.75 26.9375 59.75H61.0625C63.2363 59.75 65 57.9863 65 55.8125V34.8125C65 32.6387 63.2363 30.875 61.0625 30.875ZM37.4375 26.9375H50.5625V30.875H37.4375V26.9375ZM26.9375 55.8125V34.8125H33.5V55.8125H26.9375ZM37.4375 55.8125V34.8125H50.5625V55.8125H37.4375ZM61.0625 55.8125H54.5V34.8125H61.0625V55.8125Z" fill="#0A0A0A"/>
</svg>
