<svg width="16" height="16" viewBox="0 0 16 16" fill="none" xmlns="http://www.w3.org/2000/svg">
<path d="M11.85 10.875H12.4625C12.6375 10.875 12.8125 10.7 12.8125 10.525V4.225C12.8125 4.05 12.6375 3.875 12.4625 3.875H11.85C11.675 3.875 11.5 4.05 11.5 4.225V10.525C11.5 10.7 11.675 10.875 11.85 10.875ZM6.6 10.875H7.2125C7.3875 10.875 7.5625 10.7 7.5625 10.525V5.1C7.5625 4.925 7.3875 4.75 7.2125 4.75H6.6C6.425 4.75 6.25 4.925 6.25 5.1V10.525C6.25 10.7 6.425 10.875 6.6 10.875ZM9.225 10.875H9.8375C10.0125 10.875 10.1875 10.7 10.1875 10.525V6.85C10.1875 6.675 10.0125 6.5 9.8375 6.5H9.225C9.05 6.5 8.875 6.675 8.875 6.85V10.525C8.875 10.7 9.05 10.875 9.225 10.875ZM14.5625 12.1875H2.3125V3.4375C2.3125 3.19578 2.11672 3 1.875 3H1.4375C1.19578 3 1 3.19578 1 3.4375V12.625C1 13.1082 1.39184 13.5 1.875 13.5H14.5625C14.8042 13.5 15 13.3042 15 13.0625V12.625C15 12.3833 14.8042 12.1875 14.5625 12.1875ZM3.975 10.875H4.5875C4.7625 10.875 4.9375 10.7 4.9375 10.525V8.6C4.9375 8.425 4.7625 8.25 4.5875 8.25H3.975C3.8 8.25 3.625 8.425 3.625 8.6V10.525C3.625 10.7 3.8 10.875 3.975 10.875Z" fill="#0A0A0A"/>
</svg>
