<svg width="88" height="88" viewBox="0 0 88 88" fill="none" xmlns="http://www.w3.org/2000/svg">
<rect width="88" height="88" rx="44" fill="#F4F4F4"/>
<path d="M55.55 52.625H57.3875C57.9125 52.625 58.4375 52.1 58.4375 51.575V32.675C58.4375 32.15 57.9125 31.625 57.3875 31.625H55.55C55.025 31.625 54.5 32.15 54.5 32.675V51.575C54.5 52.1 55.025 52.625 55.55 52.625ZM39.8 52.625H41.6375C42.1625 52.625 42.6875 52.1 42.6875 51.575V35.3C42.6875 34.775 42.1625 34.25 41.6375 34.25H39.8C39.275 34.25 38.75 34.775 38.75 35.3V51.575C38.75 52.1 39.275 52.625 39.8 52.625ZM47.675 52.625H49.5125C50.0375 52.625 50.5625 52.1 50.5625 51.575V40.55C50.5625 40.025 50.0375 39.5 49.5125 39.5H47.675C47.15 39.5 46.625 40.025 46.625 40.55V51.575C46.625 52.1 47.15 52.625 47.675 52.625ZM63.6875 56.5625H26.9375V30.3125C26.9375 29.5873 26.3502 29 25.625 29H24.3125C23.5873 29 23 29.5873 23 30.3125V57.875C23 59.3245 24.1755 60.5 25.625 60.5H63.6875C64.4127 60.5 65 59.9127 65 59.1875V57.875C65 57.1498 64.4127 56.5625 63.6875 56.5625ZM31.925 52.625H33.7625C34.2875 52.625 34.8125 52.1 34.8125 51.575V45.8C34.8125 45.275 34.2875 44.75 33.7625 44.75H31.925C31.4 44.75 30.875 45.275 30.875 45.8V51.575C30.875 52.1 31.4 52.625 31.925 52.625Z" fill="black"/>
</svg>
