<svg width="425" height="80" viewBox="0 0 425 80" fill="none" xmlns="http://www.w3.org/2000/svg">
<path d="M152.855 51.3409C148.794 51.3409 145.26 50.5458 142.254 48.956C139.287 47.3658 136.983 45.1892 135.343 42.4258C133.703 39.6244 132.883 36.4632 132.883 32.9427C132.883 30.1791 133.45 27.5859 134.581 25.1631C135.714 22.7024 137.256 20.5447 139.208 18.6897C141.16 16.8347 143.387 15.3772 145.886 14.3173C148.384 13.2573 151.02 12.7273 153.792 12.7273C155.783 12.7273 157.462 12.8598 158.829 13.1248C160.234 13.3519 161.465 13.6737 162.519 14.0902C163.612 14.4687 164.705 14.923 165.799 15.453L166.326 25.7878H165.271L160.586 17.8379C159.376 17.043 158.282 16.4751 157.306 16.1344C156.33 15.7558 155.198 15.5666 153.909 15.5666C151.372 15.5666 149.087 16.2479 147.057 17.6108C145.026 18.9736 143.425 20.8854 142.254 23.346C141.083 25.8067 140.497 28.6459 140.497 31.8638C140.497 35.3087 141.064 38.2617 142.196 40.7223C143.328 43.183 144.85 45.0755 146.764 46.4008C148.716 47.7257 150.883 48.3879 153.265 48.3879C155.022 48.3879 156.525 48.1609 157.775 47.7065C159.063 47.2526 160.254 46.7036 161.347 46.0597L165.857 39.0755H166.853L166.091 48.445C164.452 49.3155 162.577 50.016 160.469 50.5458C158.399 51.076 155.862 51.3409 152.855 51.3409Z" fill="#0185B6"/>
<path d="M186.705 51.3434C182.801 51.3434 179.697 50.2268 177.393 47.9931C175.129 45.7594 173.996 42.7877 173.996 39.078C173.996 36.2008 174.621 33.6644 175.871 31.4688C177.12 29.2731 178.76 27.5506 180.791 26.3013C182.86 25.0521 185.144 24.4275 187.642 24.4275C190.766 24.4275 193.207 25.4685 194.964 27.5506C196.721 29.6327 197.619 32.5666 197.659 36.3524L197.424 36.636H180.557C180.557 38.3395 180.868 39.9105 181.493 41.3491C182.118 42.7498 183.133 43.8856 184.539 44.7565C185.944 45.5891 187.799 46.0056 190.103 46.0056C191.196 46.0056 192.367 45.8544 193.617 45.5512C194.866 45.2484 196.174 44.7373 197.541 44.018H197.717V44.8132C196.779 46.6682 195.355 48.22 193.441 49.4696C191.528 50.7186 189.283 51.3434 186.705 51.3434ZM186.471 26.9828C184.91 26.9828 183.621 27.6074 182.605 28.8567C181.591 30.1059 180.947 31.8473 180.673 34.0808H191.977C191.626 31.4688 190.981 29.6327 190.044 28.5728C189.107 27.5128 187.916 26.9828 186.471 26.9828Z" fill="#0185B6"/>
<path d="M206.455 27.7186L202.648 25.9015V24.9929H213.952L221.449 41.3468H221.859L229.238 24.9929H239.898V25.9015L236.091 27.7186L237.204 48.0474L241.011 49.8645V50.7734H227.072V49.8645L230.41 48.0474L229.532 31.0689L220.746 50.7734H218.755L209.442 31.0121L208.974 48.0474L212.312 49.8645V50.7734H202.062V49.8645L205.87 48.0474L206.455 27.7186Z" fill="#0185B6"/>
<path d="M258.018 51.3434C254.113 51.3434 251.009 50.2268 248.705 47.9931C246.441 45.7594 245.309 42.7877 245.309 39.078C245.309 36.2008 245.933 33.6644 247.183 31.4688C248.432 29.2731 250.072 27.5506 252.103 26.3013C254.172 25.0521 256.456 24.4275 258.955 24.4275C262.078 24.4275 264.518 25.4685 266.276 27.5506C268.033 29.6327 268.931 32.5666 268.97 36.3524L268.736 36.636H251.868C251.868 38.3395 252.18 39.9105 252.805 41.3492C253.429 42.7498 254.445 43.8856 255.851 44.7565C257.257 45.5891 259.111 46.0056 261.415 46.0056C262.508 46.0056 263.679 45.8544 264.929 45.5512C266.178 45.2484 267.486 44.7373 268.853 44.018H269.029V44.8132C268.092 46.6682 266.666 48.22 264.754 49.4696C262.84 50.7186 260.594 51.3434 258.018 51.3434ZM257.783 26.9828C256.222 26.9828 254.933 27.6074 253.918 28.8567C252.903 30.1059 252.258 31.8473 251.985 34.0808H263.289C262.937 31.4688 262.294 29.6327 261.356 28.5728C260.419 27.5128 259.228 26.9828 257.783 26.9828Z" fill="#0185B6"/>
<path d="M277.597 27.7228L273.789 25.9057V24.9971H287.553V25.9057L284.39 27.7228V41.9191L295.225 29.767V27.7228L292.063 25.9057V24.9971H305.827V25.9057L302.019 27.7228V48.0516L305.827 49.8687V50.7776H292.063V49.8687L295.225 48.0516V33.742L284.39 45.8937V48.0516L287.553 49.8687V50.7776H273.789V49.8687L277.597 48.0516V27.7228ZM279.412 10.6306H284.858C284.858 12.8263 285.23 14.6055 285.971 15.9684C286.713 17.2933 287.905 17.9558 289.544 17.9558C291.184 17.9558 292.375 17.2933 293.117 15.9684C293.897 14.6055 294.288 12.8263 294.288 10.6306H299.735C299.735 13.3941 298.856 15.6655 297.1 17.4448C295.382 19.224 292.863 20.1137 289.544 20.1137C286.264 20.1137 283.746 19.224 281.989 17.4448C280.27 15.6655 279.412 13.3941 279.412 10.6306Z" fill="#0185B6"/>
<path d="M314.092 27.7186L310.285 25.9015V24.9929H324.049V25.9015L320.887 27.7186V36.066H331.136V27.7186L327.973 25.9015V24.9929H341.737V25.9015L337.929 27.7186V48.0474L341.737 49.8645V50.7734H327.973V49.8645L331.136 48.0474V38.7916H320.887V48.0474L324.049 49.8645V50.7734H310.285V49.8645L314.092 48.0474V27.7186Z" fill="#0185B6"/>
<path d="M383.683 27.7186V48.0474L387.49 49.8645V50.7734H373.082V49.8645L376.889 48.0474V27.7186L373.082 25.9015V24.9929H387.49V25.9015L383.683 27.7186ZM358.733 34.8736C362.247 34.8736 365.058 35.233 367.167 35.9524C369.275 36.6337 370.798 37.5612 371.735 38.7349C372.672 39.8708 373.141 41.1011 373.141 42.426C373.141 47.9908 368.241 50.7734 358.44 50.7734H346.199V49.8645L350.006 48.0474V27.7186L346.199 25.9015V24.9929H361.544V25.9015L356.801 27.7186V34.8736H358.733ZM359.494 37.5425H356.801V48.1611H359.319C361.583 48.1611 363.262 47.7067 364.356 46.7984C365.449 45.8895 365.995 44.6217 365.995 42.9936C365.995 41.328 365.449 40.0032 364.356 39.0185C363.301 38.0344 361.681 37.5425 359.494 37.5425Z" fill="#0185B6"/>
<path d="M395.76 27.7196L391.953 25.9025V24.9939H405.717V25.9025L402.554 27.7196V41.9159L413.389 29.7638V27.7196L410.226 25.9025V24.9939H423.99V25.9025L420.183 27.7196V48.0484L423.99 49.8655V50.7744H410.226V49.8655L413.389 48.0484V33.7388L402.554 45.8905V48.0484L405.717 49.8655V50.7744H391.953V49.8655L395.76 48.0484V27.7196ZM397.576 10.6274H403.023C403.023 12.8231 403.394 14.6023 404.136 15.9652C404.878 17.2902 406.068 17.9526 407.708 17.9526C409.348 17.9526 410.539 17.2902 411.281 15.9652C412.062 14.6023 412.452 12.8231 412.452 10.6274H417.899C417.899 13.391 417.021 15.6623 415.263 17.4416C413.545 19.2208 411.027 20.1105 407.708 20.1105C404.428 20.1105 401.91 19.2208 400.153 17.4416C398.435 15.6623 397.576 13.391 397.576 10.6274Z" fill="#0185B6"/>
<path d="M180.351 74.4579H177.651V79.8211H175.97V74.4579H173.27L169.458 79.8211H167.445L171.921 73.6095L167.8 67.7649H169.624L173.27 73.0596H175.97V67.7649H177.651V73.0596H180.351L184.021 67.7649H185.844L181.724 73.6324L186.2 79.8211H184.187L180.351 74.4579Z" fill="#343434"/>
<path d="M190.188 67.7649H191.869V77.3458L200.181 67.7649H201.672V79.8211H199.991V70.2405L191.703 79.8211H190.188V67.7649Z" fill="#343434"/>
<path d="M217.847 67.7649V79.8211H216.165V69.2091H210.198L210.032 72.1887C209.906 74.6947 209.607 76.62 209.133 77.9646C208.658 79.3091 207.814 79.9816 206.598 79.9816C206.268 79.9816 205.865 79.9203 205.391 79.7981L205.509 78.4003C205.793 78.4611 205.991 78.492 206.101 78.492C206.749 78.492 207.238 78.2014 207.57 77.6206C207.901 77.0403 208.122 76.3219 208.232 75.4665C208.343 74.6105 208.438 73.4799 208.517 72.074L208.73 67.7649H217.847Z" fill="#343434"/>
<path d="M228.952 79.9369C227.752 79.9369 226.67 79.6772 225.708 79.1577C224.744 78.6228 223.987 77.8894 223.434 76.9573C222.882 76.025 222.605 74.9706 222.605 73.7942C222.605 72.6176 222.882 71.5633 223.434 70.631C223.987 69.6993 224.744 68.9734 225.708 68.454C226.67 67.934 227.752 67.6743 228.952 67.6743C230.151 67.6743 231.232 67.934 232.196 68.454C233.159 68.9734 233.909 69.6993 234.445 70.631C234.997 71.5633 235.274 72.6176 235.274 73.7942C235.274 74.9706 234.997 76.025 234.445 76.9573C233.909 77.8894 233.159 78.6228 232.196 79.1577C231.232 79.6772 230.151 79.9369 228.952 79.9369ZM228.952 78.4932C229.836 78.4932 230.625 78.3018 231.319 77.9199C232.03 77.5226 232.582 76.9647 232.977 76.2469C233.371 75.5285 233.569 74.7109 233.569 73.7942C233.569 72.8774 233.371 72.0598 232.977 71.3419C232.582 70.6235 232.03 70.0737 231.319 69.6913C230.625 69.294 229.836 69.0956 228.952 69.0956C228.068 69.0956 227.27 69.294 226.56 69.6913C225.865 70.0737 225.313 70.6235 224.902 71.3419C224.508 72.0598 224.311 72.8774 224.311 73.7942C224.311 74.7109 224.508 75.5285 224.902 76.2469C225.313 76.9647 225.865 77.5226 226.56 77.9199C227.27 78.3018 228.068 78.4932 228.952 78.4932Z" fill="#343434"/>
<path d="M240.059 67.7613H241.74V77.3424L250.052 67.7613H251.543V79.8175H249.862V70.2369L241.573 79.8175H240.059V67.7613ZM245.718 66.0195C244.645 66.0195 243.792 65.7597 243.161 65.2403C242.529 64.7208 242.206 63.987 242.19 63.0398H243.398C243.413 63.6356 243.634 64.1171 244.06 64.484C244.487 64.8355 245.04 65.0109 245.718 65.0109C246.397 65.0109 246.949 64.8355 247.375 64.484C247.817 64.1171 248.046 63.6356 248.062 63.0398H249.27C249.254 63.987 248.923 64.7208 248.275 65.2403C247.644 65.7597 246.791 66.0195 245.718 66.0195Z" fill="#343434"/>
<path d="M269.445 74.4517H266.604V79.8148H264.922V67.7585H266.604V73.0534H269.468L273.849 67.7585H275.673L270.771 73.6033L276.028 79.8148H274.039L269.445 74.4517Z" fill="#343434"/>
<path d="M284.573 79.943C283.373 79.943 282.291 79.6833 281.329 79.1638C280.366 78.6289 279.608 77.8955 279.056 76.9634C278.503 76.0311 278.227 74.9767 278.227 73.8002C278.227 72.6237 278.503 71.5694 279.056 70.6371C279.608 69.7054 280.366 68.9795 281.329 68.4601C282.291 67.9402 283.373 67.6804 284.573 67.6804C285.773 67.6804 286.854 67.9402 287.817 68.4601C288.78 68.9795 289.53 69.7054 290.066 70.6371C290.619 71.5694 290.895 72.6237 290.895 73.8002C290.895 74.9767 290.619 76.0311 290.066 76.9634C289.53 77.8955 288.78 78.6289 287.817 79.1638C286.854 79.6833 285.773 79.943 284.573 79.943ZM284.573 78.4993C285.457 78.4993 286.246 78.3078 286.941 77.926C287.651 77.5286 288.204 76.9708 288.599 76.253C288.993 75.5346 289.191 74.717 289.191 73.8002C289.191 72.8834 288.993 72.0658 288.599 71.348C288.204 70.6296 287.651 70.0798 286.941 69.6975C286.246 69.3001 285.457 69.1017 284.573 69.1017C283.689 69.1017 282.892 69.3001 282.181 69.6975C281.486 70.0798 280.934 70.6296 280.524 71.348C280.129 72.0658 279.932 72.8834 279.932 73.8002C279.932 74.717 280.129 75.5346 280.524 76.253C280.934 76.9708 281.486 77.5286 282.181 77.926C282.892 78.3078 283.689 78.4993 284.573 78.4993Z" fill="#343434"/>
<path d="M309.585 67.7617V79.818H308.045V70.2832L303.002 78.3513H302.244L297.2 70.2604V79.818H295.66V67.7617H297.366L302.646 76.4489L308.022 67.7617H309.585Z" fill="#343434"/>
<path d="M326.736 67.7617V79.818H325.054V69.206H317.24V79.818H315.559V67.7617H326.736Z" fill="#343434"/>
<path d="M342.877 67.7649V79.8211H341.196V69.2091H335.229L335.063 72.1887C334.937 74.6947 334.637 76.62 334.163 77.9646C333.69 79.3091 332.845 79.9816 331.629 79.9816C331.298 79.9816 330.895 79.9203 330.422 79.7981L330.54 78.4003C330.824 78.4611 331.021 78.492 331.133 78.492C331.779 78.492 332.268 78.2014 332.6 77.6206C332.931 77.0403 333.153 76.3219 333.263 75.4665C333.373 74.6105 333.468 73.4799 333.547 72.074L333.761 67.7649H342.877Z" fill="#343434"/>
<path d="M359.741 74.3047H349.322C349.417 75.5575 349.914 76.574 350.814 77.3531C351.713 78.1169 352.85 78.4993 354.224 78.4993C354.997 78.4993 355.708 78.3691 356.355 78.1094C357.002 77.8342 357.563 77.437 358.036 76.9174L358.983 77.9718C358.431 78.6134 357.736 79.1025 356.899 79.439C356.079 79.775 355.171 79.943 354.176 79.943C352.897 79.943 351.761 79.6833 350.766 79.1638C349.788 78.6289 349.022 77.8955 348.47 76.9634C347.917 76.0311 347.641 74.9767 347.641 73.8002C347.641 72.6237 347.901 71.5694 348.422 70.6371C348.959 69.7054 349.685 68.9795 350.601 68.4601C351.532 67.9402 352.574 67.6804 353.726 67.6804C354.879 67.6804 355.913 67.9402 356.828 68.4601C357.744 68.9795 358.463 69.7054 358.983 70.6371C359.504 71.5544 359.765 72.6082 359.765 73.8002L359.741 74.3047ZM353.726 69.0787C352.526 69.0787 351.516 69.4531 350.695 70.2019C349.89 70.9352 349.432 71.8978 349.322 73.0898H358.154C358.044 71.8978 357.579 70.9352 356.758 70.2019C355.952 69.4531 354.942 69.0787 353.726 69.0787Z" fill="#343434"/>
<path d="M369.187 74.4579H366.345V79.8211H364.664V67.7649H366.345V73.0596H369.21L373.592 67.7649H375.415L370.512 73.6095L375.77 79.8211H373.78L369.187 74.4579Z" fill="#343434"/>
<path d="M384.378 79.9369C383.147 79.9369 382.042 79.6772 381.063 79.1578C380.1 78.6382 379.342 77.9124 378.79 76.9802C378.238 76.033 377.961 74.9706 377.961 73.7942C377.961 72.6176 378.238 71.5633 378.79 70.631C379.342 69.6993 380.1 68.9734 381.063 68.454C382.042 67.934 383.147 67.6743 384.378 67.6743C385.452 67.6743 386.407 67.8806 387.243 68.2934C388.096 68.6908 388.767 69.279 389.256 70.0582L388.001 70.8833C387.591 70.2875 387.07 69.8443 386.438 69.5542C385.807 69.2482 385.121 69.0956 384.378 69.0956C383.478 69.0956 382.665 69.294 381.939 69.6913C381.229 70.0737 380.668 70.6235 380.258 71.3419C379.863 72.0598 379.666 72.8774 379.666 73.7942C379.666 74.7264 379.863 75.5514 380.258 76.2698C380.668 76.9727 381.229 77.5226 381.939 77.9199C382.665 78.3018 383.478 78.4932 384.378 78.4932C385.121 78.4932 385.807 78.3477 386.438 78.0575C387.07 77.7674 387.591 77.3242 388.001 76.7279L389.256 77.5534C388.767 78.3326 388.096 78.9284 387.243 79.3412C386.391 79.7385 385.436 79.9369 384.378 79.9369Z" fill="#343434"/>
<path d="M73.4249 27.0734C75.4267 29.4543 78.1641 31.4772 81.1154 33.6522C81.5718 33.9834 82.0187 34.3236 82.4751 34.6545L82.4839 34.6637C86.2362 31.3697 90.7519 28.9531 95.724 27.4315C95.007 25.9546 94.206 24.5225 93.3403 23.1173C88.1451 24.8985 83.4152 27.6821 79.4212 31.2355C79.7842 30.3046 84.719 19.5281 86.8693 14.8738C85.6966 13.6744 84.4488 12.5198 83.1266 11.4368C81.041 16.4222 77.4193 21.6493 73.4249 27.0734C73.4157 27.0734 73.4157 27.0734 73.4249 27.0734Z" fill="#00AA01"/>
<path d="M41.2297 19.5392L47.8308 15.3503C46.0058 10.3648 43.7807 5.20926 41.1085 0.608643C39.47 0.912961 37.8407 1.30679 36.2299 1.77222C38.1013 5.68365 39.8982 9.63981 41.5743 13.6407C36.109 9.55029 29.3123 7.4648 22.3945 7.76913L24.3125 11.8059C30.6995 12.6561 36.8819 15.3055 41.2297 19.5392Z" fill="#00AA01"/>
<path d="M100.121 43.2493C99.9431 41.2444 99.6458 39.2665 99.2357 37.3243C99.2269 37.3243 99.2269 37.3243 99.2269 37.3243C96.2756 39.7855 92.9326 42.8734 89.4968 46.3733C87.1698 41.3875 82.0674 38.1476 77.3188 34.5765C77.1607 34.4599 77.0119 34.3437 76.8534 34.2271C76.8442 34.2183 76.835 34.2183 76.8254 34.2095C74.9356 32.7683 73.1107 31.2646 71.5742 29.5551C71.5742 29.5551 71.5743 29.5639 71.5651 29.5639C69.1349 26.8878 67.3941 23.7192 67.1147 19.5393L62.357 21.5443C63.0086 26.7803 65.4014 30.5754 68.4647 33.7081C64.424 39.1679 60.4576 44.789 57.6554 50.5351C57.5621 50.7144 54.4989 36.4202 50.3651 23.2448C51.4173 22.6183 52.5066 22.0007 53.6144 21.3652C63.3904 15.8159 75.0285 11.1079 79.1346 8.36898C77.7471 7.42022 76.3135 6.52516 74.8239 5.71959C70.9599 8.03778 64.6286 10.5439 60.4112 12.9069C62.1241 10.3291 62.1521 3.41928 61.6122 0.841522C59.9177 0.483497 58.1765 0.206029 56.417 0.0180664C56.4447 0.134424 56.4916 0.259732 56.5099 0.393991C57.4689 7.10693 56.0258 10.4723 54.0799 13.9004C51.8919 18.3847 35.1144 21.4279 32.8614 35.4534C30.6921 33.9498 28.5692 32.6251 26.5116 31.4436C26.3533 33.1172 26.1299 34.7823 25.8878 36.4379C25.8413 36.796 25.7854 37.1542 25.7295 37.5121C25.7295 37.539 25.7202 37.5659 25.7202 37.6017C25.4782 39.2753 25.236 40.9759 25.0406 42.6945C26.1392 44.6547 27.0702 46.767 27.7499 49.0584C30.3103 57.6778 32.3121 66.4672 33.7272 75.3643C7.29475 48.7811 33.7737 31.0051 17.8901 11.4211C16.568 12.5042 15.3204 13.6677 14.1473 14.8582C17.1825 17.6955 18.1042 22.5378 18.1508 27.1563C13.8773 25.2408 10.2462 23.9878 7.67648 23.1016C6.81061 24.4979 6.00991 25.939 5.29298 27.4159C9.89235 28.8211 14.0914 31.0051 17.6574 33.9317C15.7393 41.1013 15.3204 47.8947 16.028 52.2448C13.2349 49.2643 7.29475 43.1419 1.78294 37.3151C1.77363 37.3151 1.77363 37.3151 1.77363 37.3151C1.37328 39.2665 1.07534 41.2533 0.898438 43.2493C6.51266 48.8526 13.6072 56.7471 18.5139 62.7887C13.4118 60.6315 7.85337 59.4949 2.18329 59.5215C2.59295 61.097 3.05847 62.6544 3.60778 64.176C14.5849 64.5788 24.6868 70.298 30.6454 79.2844C30.8037 79.5172 30.9434 79.7499 31.1017 79.9827H39.3134C37.442 66.1809 34.2767 52.6027 29.8168 39.4185C34.472 45.5588 38.699 51.9764 42.535 58.6804L45.8216 63.9164L47.1995 57.6867C48.1679 53.1844 49.2758 48.7272 50.5048 44.2966C51.7431 48.7272 52.8417 53.1936 53.8101 57.6867L55.188 63.9164L58.4746 58.6804C62.301 51.9764 66.528 45.5588 71.1928 39.4185C66.7329 52.6027 63.5673 66.1809 61.6959 79.9827H69.9078C70.0662 79.7499 70.2059 79.5172 70.364 79.2844C76.3227 70.298 86.4248 64.5788 97.4019 64.176C97.9511 62.6544 98.4259 61.097 98.8264 59.5215C93.1564 59.4949 87.5975 60.6226 82.4959 62.7887C87.002 54.6076 94.469 47.2502 100.121 43.2493ZM43.6616 51.0903C43.2334 50.392 42.7864 49.7029 42.3674 49.0135C35.3938 37.4851 36.7067 32.3296 45.533 26.3865C50.095 37.0646 44.9555 45.7555 43.6616 51.0903ZM67.2824 75.382C68.5206 67.604 71.4442 51.8331 77.4773 41.0832C80.9778 43.7506 84.181 46.4807 85.9316 50.1235C78.8552 57.7674 71.7979 66.8073 67.2824 75.382Z" fill="#0185B6"/>
<path d="M42.7375 33.0181C41.4805 34.7455 37.3932 37.8512 43.3331 41.6373C44.5902 39.9099 48.6683 36.8042 42.7375 33.0181Z" fill="#00AA01"/>
<path d="M27.5523 58.5793C27.8316 56.2878 29.7309 51.4097 23.7071 49.9866C23.4278 52.2781 21.5377 57.147 27.5523 58.5793Z" fill="#00AA01"/>
<path d="M31.9942 27.9601C33.335 25.2928 38.2788 20.1014 29.1639 16.1274C27.8139 18.7947 22.87 23.986 31.9942 27.9601Z" fill="#00AA01"/>
<path d="M35.861 7.36511C35.442 5.87932 35.554 2.23643 30.582 3.65061C30.9917 5.13643 30.8893 8.78826 35.861 7.36511Z" fill="#00AA01"/>
<path d="M50.7766 10.5241C52.2666 8.68024 56.959 5.467 50.6185 0.964844C49.1289 2.80867 44.4361 6.03087 50.7766 10.5241Z" fill="#00AA01"/>
<path d="M14.8389 23.3051C14.783 21.685 15.8165 17.9705 10.3512 18.2659C10.4071 19.886 9.3829 23.6005 14.8389 23.3051Z" fill="#00AA01"/>
<path d="M59.7965 37.0458C66.4816 30.7089 60.6438 27.1465 58.6791 24.9805C51.9944 31.3086 57.832 34.8798 59.7965 37.0458Z" fill="#00AA01"/>
<path d="M92.4477 39.1384C100.166 37.035 96.8883 32.3539 96.1624 30.0806C88.4445 32.1838 91.7123 36.865 92.4477 39.1384Z" fill="#00AA01"/>
<path d="M93.9336 56.4239C100.665 57.355 99.8082 52.6469 100.06 50.6509C93.3285 49.7202 94.1854 54.4283 93.9336 56.4239Z" fill="#00AA01"/>
<path d="M76.0361 14.3398C68.2712 15.6466 70.9806 20.5337 71.4553 22.825C79.2202 21.5182 76.5111 16.6222 76.0361 14.3398Z" fill="#00AA01"/>
<path d="M69.0536 3.32935C63.9233 2.57751 64.5472 6.17566 64.3516 7.70619C69.4818 8.44907 68.8579 4.85096 69.0536 3.32935Z" fill="#00AA01"/>
<path d="M74.8224 57.8715C82.4664 56.359 80.4648 50.0666 80.2881 47.1399C72.6437 48.6435 74.6456 54.9359 74.8224 57.8715Z" fill="#00AA01"/>
<path d="M86.6029 23.3051C92.0674 23.6005 91.0338 19.877 91.0898 18.2659C85.6244 17.9705 86.6492 21.685 86.6029 23.3051Z" fill="#00AA01"/>
<path d="M6.52476 55.8803C6.27335 53.8843 7.12992 49.1763 0.398438 50.107C0.649822 52.103 -0.206745 56.8111 6.52476 55.8803Z" fill="#00AA01"/>
<path d="M7.89907 38.7675C8.69043 36.4672 12.1167 31.7503 4.28657 29.468C3.4952 31.7683 0.0689347 36.4852 7.89907 38.7675Z" fill="#00AA01"/>
</svg>
