<svg width="32" height="32" viewBox="0 0 32 32" fill="none" xmlns="http://www.w3.org/2000/svg">
<path d="M16 11.8929C16.7143 11.8929 17.3929 12.1071 18.0357 12.4643C18.6786 12.8214 19.1786 13.3214 19.5357 13.9643C19.8929 14.6071 20.1071 15.2857 20.1071 16C20.1071 16.75 19.8929 17.4286 19.5357 18.0714C19.1786 18.7143 18.6786 19.2143 18.0357 19.5714C17.3929 19.9286 16.7143 20.1071 16 20.1071C15.25 20.1071 14.5714 19.9286 13.9286 19.5714C13.2857 19.2143 12.7857 18.7143 12.4286 18.0714C12.0714 17.4286 11.8929 16.75 11.8929 16C11.8929 15.2857 12.0714 14.6071 12.4286 13.9643C12.7857 13.3214 13.2857 12.8214 13.9286 12.4643C14.5714 12.1071 15.25 11.8929 16 11.8929ZM16 18.6786C16.7143 18.6786 17.3571 18.4286 17.8929 17.8929C18.3929 17.3929 18.6786 16.75 18.6786 16C18.6786 15.2857 18.3929 14.6429 17.8929 14.1071C17.3571 13.6071 16.7143 13.3214 16 13.3214C15.25 13.3214 14.6071 13.6071 14.1071 14.1071C13.5714 14.6429 13.3214 15.2857 13.3214 16C13.3214 16.75 13.5714 17.3929 14.1071 17.8929C14.6071 18.4286 15.25 18.6786 16 18.6786ZM21.25 11.7143C21.25 11.4643 21.1429 11.25 20.9643 11.0357C20.75 10.8571 20.5357 10.75 20.2857 10.75C20 10.75 19.7857 10.8571 19.6071 11.0357C19.3929 11.25 19.3214 11.4643 19.3214 11.7143C19.3214 12 19.3929 12.2143 19.6071 12.3929C19.7857 12.6071 20 12.6786 20.2857 12.6786C20.5357 12.6786 20.75 12.6071 20.9286 12.3929C21.1071 12.2143 21.2143 12 21.25 11.7143ZM23.9643 12.6786C23.9643 13.3571 24 14.4643 24 16C24 17.5714 23.9643 18.6786 23.9286 19.3571C23.8929 20.0357 23.7857 20.6071 23.6429 21.1071C23.4286 21.7143 23.0714 22.25 22.6429 22.6786C22.2143 23.1071 21.6786 23.4286 21.1071 23.6429C20.6071 23.8214 20 23.9286 19.3214 23.9643C18.6429 24 17.5357 24 16 24C14.4286 24 13.3214 24 12.6429 23.9643C11.9643 23.9286 11.3929 23.8214 10.8929 23.6071C10.2857 23.4286 9.75 23.1071 9.32143 22.6786C8.89286 22.25 8.57143 21.7143 8.35714 21.1071C8.17857 20.6071 8.07143 20.0357 8.03571 19.3571C8 18.6786 8 17.5714 8 16C8 14.4643 8 13.3571 8.03571 12.6786C8.07143 12 8.17857 11.3929 8.35714 10.8929C8.57143 10.3214 8.89286 9.78571 9.32143 9.35714C9.75 8.92857 10.2857 8.57143 10.8929 8.35714C11.3929 8.21429 11.9643 8.10714 12.6429 8.07143C13.3214 8.03571 14.4286 8 16 8C17.5357 8 18.6429 8.03571 19.3214 8.07143C20 8.10714 20.6071 8.21429 21.1071 8.35714C21.6786 8.57143 22.2143 8.92857 22.6429 9.35714C23.0714 9.78571 23.4286 10.3214 23.6429 10.8929C23.7857 11.3929 23.8929 12 23.9643 12.6786ZM22.25 20.7143C22.3929 20.3214 22.4643 19.6786 22.5357 18.7857C22.5357 18.2857 22.5714 17.5357 22.5714 16.5714V15.4286C22.5714 14.4643 22.5357 13.7143 22.5357 13.2143C22.4643 12.3214 22.3929 11.6786 22.25 11.2857C21.9643 10.5714 21.4286 10.0357 20.7143 9.75C20.3214 9.60714 19.6786 9.53571 18.7857 9.46429C18.25 9.46429 17.5 9.42857 16.5714 9.42857H15.4286C14.4643 9.42857 13.7143 9.46429 13.2143 9.46429C12.3214 9.53571 11.6786 9.60714 11.2857 9.75C10.5357 10.0357 10.0357 10.5714 9.75 11.2857C9.60714 11.6786 9.5 12.3214 9.46429 13.2143C9.42857 13.75 9.42857 14.5 9.42857 15.4286V16.5714C9.42857 17.5357 9.42857 18.2857 9.46429 18.7857C9.5 19.6786 9.60714 20.3214 9.75 20.7143C10.0357 21.4643 10.5714 21.9643 11.2857 22.25C11.6786 22.3929 12.3214 22.5 13.2143 22.5357C13.7143 22.5714 14.4643 22.5714 15.4286 22.5714H16.5714C17.5357 22.5714 18.2857 22.5714 18.7857 22.5357C19.6786 22.5 20.3214 22.3929 20.7143 22.25C21.4286 21.9643 21.9643 21.4286 22.25 20.7143Z" fill="white"/>
</svg>
