<svg width="16" height="16" viewBox="0 0 16 16" fill="none" xmlns="http://www.w3.org/2000/svg">
<path d="M1.33333 4.94444H14.6667C14.9122 4.94444 15.1111 4.74556 15.1111 4.5V3.47472C15.1111 3.28944 14.9961 3.12361 14.8228 3.05861L8.31222 0.556667C8.21167 0.518889 8.10583 0.5 8 0.5C7.89417 0.5 7.78833 0.518889 7.68778 0.556667L1.17722 3.05861C1.09253 3.09039 1.01955 3.14725 0.968025 3.22161C0.916504 3.29596 0.888896 3.38426 0.888889 3.47472V4.5C0.888889 4.74556 1.08778 4.94444 1.33333 4.94444ZM8 1.865L12.5439 3.61111H3.45611L8 1.865ZM15.5556 13.3889H15.1111V11.6111C15.1111 11.1203 14.6564 10.7222 14.0953 10.7222H13.3333V5.83333H12V10.7222H10.2222V5.83333H8.88889V10.7222H7.11111V5.83333H5.77778V10.7222H4V5.83333H2.66667V10.7222H1.90472C1.34361 10.7222 0.888889 11.1203 0.888889 11.6111V13.3889H0.444444C0.198889 13.3889 0 13.5878 0 13.8333V14.2778C0 14.5233 0.198889 14.7222 0.444444 14.7222H15.5556C15.8011 14.7222 16 14.5233 16 14.2778V13.8333C16 13.5878 15.8011 13.3889 15.5556 13.3889ZM13.7778 13.3889H2.22222V12.0556H13.7778V13.3889Z" fill="white"/>
</svg>
