<svg width="144" height="51" viewBox="0 0 144 51" fill="none" xmlns="http://www.w3.org/2000/svg">
<g clip-path="url(#clip0)">
<path fill-rule="evenodd" clip-rule="evenodd" d="M32.0557 18.1809C31.3043 18.1809 30.553 18.1809 30.553 16.9268C30.553 15.4219 31.1791 13.6662 32.0557 12.7883C32.9322 11.6597 34.1843 11.0326 35.687 11.0326C37.1896 11.0326 38.6922 12.1613 38.6922 14.7949C38.6922 17.6793 36.8139 18.1809 33.9339 18.1809H32.0557ZM103.179 4.63675C112.32 4.63675 119.708 12.0359 119.708 21.1908C119.708 30.3456 112.32 37.7448 103.179 37.7448C94.0383 37.7448 86.6504 30.3456 86.6504 21.1908C86.6504 12.0359 94.0383 4.63675 103.179 4.63675ZM103.179 7.27034C100.049 7.27034 97.1687 8.27361 94.7896 10.0293H105.433L95.6661 32.9792C97.7948 34.3587 100.424 35.1112 103.054 35.1112C104.932 35.1112 106.81 34.735 108.438 33.9825V29.2169H99.5478L108.438 8.27361C106.81 7.52116 105.057 7.27034 103.179 7.27034ZM112.821 11.158V25.3293H116.452C116.828 24.0752 117.078 22.5703 117.078 21.1908C117.078 17.1777 115.45 13.6662 112.821 11.158ZM114.449 29.2169H112.696V31.2235C113.447 30.5964 113.948 29.9694 114.449 29.2169ZM92.5357 30.2202L99.4226 13.917H91.2835C90.0313 16.049 89.28 18.5572 89.28 21.1908C89.1548 24.5768 90.407 27.8374 92.5357 30.2202ZM108.438 25.3293V18.3063L105.433 25.3293H108.438ZM103.179 5.76543C94.6643 5.76543 87.7774 12.6629 87.7774 21.1908C87.7774 29.7186 94.6643 36.6161 103.179 36.6161C111.694 36.6161 118.581 29.7186 118.581 21.1908C118.581 12.6629 111.694 5.76543 103.179 5.76543ZM0 40.0021H144V40.7546H0V40.0021ZM122.713 29.5932C122.713 31.5997 122.337 32.8538 120.71 32.9792C120.459 32.9792 119.833 32.9792 119.833 33.6063C119.833 34.3587 120.459 34.3587 120.835 34.3587H129.85C130.727 34.3587 130.727 33.9825 130.727 33.6063C130.727 32.8538 130.226 32.9792 129.976 32.9792C127.847 32.8538 127.972 30.471 127.972 29.5932V23.1973C127.972 22.4449 127.972 22.194 128.849 22.194H135.11C135.736 22.194 135.736 22.9465 135.736 23.3227V29.5932C135.736 31.4743 135.36 32.8538 133.732 32.9792C133.357 32.9792 132.981 32.9792 132.981 33.6063C132.981 33.9825 132.981 34.3587 133.857 34.3587H142.873C143.123 34.3587 143.875 34.3587 143.875 33.6063C143.875 32.9792 143.249 32.9792 143.123 32.9792C141.496 32.8538 141.12 31.5997 141.12 29.5932V14.7949C141.12 12.7883 141.496 11.5343 143.123 11.4088C143.374 11.4088 143.875 11.4088 143.875 10.7818C143.875 10.0293 143.249 10.0293 142.873 10.0293H133.857C132.981 10.0293 132.981 10.4056 132.981 10.7818C132.981 11.4088 133.482 11.4088 133.732 11.4088C135.485 11.5343 135.736 13.0392 135.736 14.7949V19.6858C135.736 20.1875 135.861 20.6891 135.11 20.6891H128.849C128.097 20.6891 128.097 20.1875 128.097 19.6858V14.7949C128.097 13.917 127.972 11.5343 130.101 11.4088C130.351 11.4088 130.852 11.4088 130.852 10.7818C130.852 10.4056 130.852 10.0293 129.976 10.0293H120.96C120.71 10.0293 119.958 10.0293 119.958 10.7818C119.958 11.2834 120.459 11.2834 120.71 11.2834C122.337 11.4088 122.713 12.6629 122.713 14.6695V29.5932ZM76.7583 19.3096C76.8835 19.1842 77.1339 19.0588 77.3843 19.0588C77.76 19.0588 78.1357 19.435 78.1357 19.8113V29.5932C78.1357 31.4743 77.76 32.8538 76.1322 32.9792C75.7565 32.9792 75.3809 32.9792 75.3809 33.6063C75.3809 33.9825 75.3809 34.3587 76.2574 34.3587H85.273C85.5235 34.3587 86.2748 34.3587 86.2748 33.6063C86.2748 32.9792 85.6487 32.9792 85.5235 32.9792C83.8957 32.8538 83.52 31.5997 83.52 29.5932V14.7949C83.52 12.7883 83.8957 11.5343 85.5235 11.4088C85.7739 11.4088 86.2748 11.4088 86.2748 10.7818C86.2748 10.0293 85.6487 10.0293 85.273 10.0293H76.2574C75.3809 10.0293 75.3809 10.4056 75.3809 10.7818C75.2557 11.2834 75.7565 11.2834 76.007 11.2834C77.1339 11.4088 78.0104 12.1613 78.0104 14.2933V14.5441L71.3739 24.5768C71.2487 24.7022 70.9983 24.8276 70.7478 24.8276C70.3722 24.8276 69.9965 24.4514 69.9965 24.0752V14.5441C69.9965 13.6662 69.8713 11.2834 72 11.158C72.2504 11.158 72.7513 11.158 72.7513 10.531C72.7513 10.1548 72.7513 9.77852 71.8748 9.77852H62.8591C62.6087 9.77852 61.8574 9.77852 61.8574 10.531C61.9826 11.2834 62.6087 11.2834 62.8591 11.2834C64.487 11.4088 64.8626 12.6629 64.8626 14.6695V29.4678C64.8626 31.4743 64.487 32.7284 62.8591 32.8538C62.6087 32.8538 61.9826 32.8538 61.9826 33.4809C61.9826 34.2333 62.6087 34.2333 62.9843 34.2333H72C72.8765 34.2333 72.8765 33.8571 72.8765 33.4809C72.8765 32.7284 72.3756 32.8538 72.1252 32.8538C69.9965 32.7284 70.1217 30.3456 70.1217 29.4678V29.2169L76.7583 19.3096ZM47.0817 29.5932C47.0817 31.5997 46.7061 32.8538 45.0783 32.9792C44.8278 32.9792 44.2017 32.9792 44.2017 33.6063C44.2017 34.3587 44.8278 34.3587 45.2035 34.3587H54.5948C55.4713 34.3587 55.4713 33.9825 55.4713 33.6063C55.4713 32.8538 54.9704 32.9792 54.72 32.9792C52.2157 32.8538 52.4661 30.5964 52.4661 29.5932V13.29C52.4661 12.4121 52.3409 11.9105 54.5948 11.9105C58.6017 11.9105 58.8522 12.7883 60.1043 15.7982C60.48 16.5506 60.6052 16.676 60.9809 16.676C61.2313 16.676 61.4817 16.5506 61.607 16.049C61.607 15.7982 61.607 15.5473 61.607 15.2965C61.607 14.7949 61.4817 14.2933 61.4817 13.7916C61.4817 13.0392 61.3565 12.1613 61.4817 11.4088C61.4817 11.2834 61.4817 11.0326 61.4817 10.9072C61.4817 10.0293 61.1061 10.0293 60.6052 10.0293H45.2035C44.953 10.0293 44.2017 10.0293 44.2017 10.7818C44.2017 11.2834 44.8278 11.2834 45.0783 11.2834C46.8313 11.4088 47.0817 13.0392 47.0817 14.6695V29.5932ZM10.2678 6.14166C10.2678 5.13838 10.2678 3.75888 10.393 3.00643C10.7687 1.50152 12.5217 2.00315 13.273 2.00315C13.8991 2.00315 14.4 2.25397 14.9009 2.6302C16.5287 4.0097 17.5304 7.52116 17.5304 10.531C17.5304 13.29 16.5287 16.9268 13.1478 16.9268C12.647 16.9268 11.2696 16.8014 10.8939 16.676C10.5183 16.4252 10.1426 15.9236 10.1426 15.0457V6.14166H10.2678ZM3.75652 28.4645C3.75652 30.5964 3.50609 31.9759 1.87826 32.603C1.00174 32.8538 0.375652 32.4776 0.375652 33.4809C0.375652 34.4841 1.25217 34.4841 1.50261 34.4841H12.7722C13.8991 34.4841 13.8991 33.9825 13.8991 33.4809C13.8991 32.603 13.1478 32.603 12.8974 32.603C10.5183 32.4776 10.2678 30.471 10.2678 28.4645V19.3096C10.2678 19.0588 10.2678 18.5572 10.7687 18.5572C11.0191 18.5572 11.2696 18.6826 11.8957 18.808C13.273 19.3096 15.1513 19.6858 16.7791 19.6858C21.1617 19.6858 24.2922 15.5473 24.2922 10.531C24.2922 4.38593 20.2852 1.62693 17.4052 0.623654C15.527 -0.128802 12.7722 -0.00339239 10.8939 -0.00339239H1.50261C1.12696 -0.00339239 0.250435 -0.00339237 0.250435 0.999881C0.250435 2.00315 1.00174 1.62693 1.75304 1.87775C3.50609 2.50479 3.75652 3.88429 3.75652 6.01625V28.4645ZM41.3217 19.6858C42.073 19.6858 43.2 19.6858 43.2 17.6793C43.2 13.6662 40.1948 9.5277 34.6852 9.5277C28.1739 9.5277 24.4174 14.6695 24.4174 22.0686C24.4174 28.2137 27.4226 32.8538 31.4296 34.4841C34.8104 35.8636 39.193 34.735 41.6974 32.1014C42.5739 31.2235 43.4504 30.0948 43.4504 29.3424C43.4504 28.7153 43.3252 28.8407 43.0748 28.8407C42.6991 28.8407 42.4487 29.2169 41.5722 29.9694C38.1913 32.7284 33.433 31.2235 31.4296 27.5866C30.553 25.9563 29.927 23.8244 29.927 21.4416C29.927 19.435 30.1774 19.5604 30.8035 19.5604H41.3217V19.6858Z" fill="white"/>
<path fill-rule="evenodd" clip-rule="evenodd" d="M3.63108 49.1603V48.9095C3.75629 48.9095 3.88151 48.9095 4.00673 48.9095C4.13195 48.9095 4.13195 48.9095 4.13195 48.9095C4.13195 48.9095 4.13195 48.9095 4.13195 48.784C4.13195 48.784 4.13195 48.5332 4.13195 48.157C4.13195 47.7808 4.13195 47.4045 4.13195 47.0283C4.13195 46.2759 4.13195 45.6488 4.13195 45.2726C4.13195 44.8964 4.13195 44.6455 4.00673 44.6455C4.00673 44.6455 3.75629 44.5201 3.50586 44.5201V44.2693C3.88151 44.2693 4.25716 44.2693 4.63282 44.2693C5.00847 44.2693 5.50934 44.2693 6.01021 44.2693C6.38586 44.2693 6.63629 44.2693 6.88673 44.2693C7.01195 44.2693 7.13716 44.2693 7.26238 44.2693V44.3947C7.26238 44.6455 7.13716 45.0218 7.13716 45.5234H6.88673C6.88673 45.1472 6.88673 45.0218 6.88673 44.8964C6.88673 44.8964 6.76151 44.771 6.63629 44.771C6.51108 44.771 6.26064 44.771 6.01021 44.771C5.75977 44.771 5.50934 44.771 5.38412 44.771C5.38412 45.2726 5.38412 45.8996 5.38412 46.6521C5.38412 47.0283 5.38412 47.4045 5.38412 48.0316C5.38412 48.6586 5.38412 48.9095 5.38412 48.9095C5.38412 48.9095 5.38412 49.0349 5.50934 49.0349C5.50934 49.0349 5.75977 49.0349 6.13542 49.0349V49.2857C5.75977 49.2857 5.38412 49.2857 5.00847 49.2857C4.63282 49.1603 4.13195 49.1603 3.63108 49.1603ZM11.5198 49.1603V48.9095C11.7702 48.9095 12.0206 48.9095 12.0206 48.784C12.0206 48.784 12.0206 48.784 12.1459 48.6586C12.1459 48.6586 12.1459 48.4078 12.1459 47.9062C12.1459 47.4045 12.1459 47.0283 12.1459 46.6521C12.1459 45.8996 12.1459 45.2726 12.1459 45.0218C12.1459 44.6455 12.1459 44.5201 12.0206 44.5201C12.0206 44.5201 11.8954 44.3947 11.7702 44.3947H11.5198V44.1439H11.8954C12.1459 44.1439 12.3963 44.1439 12.5215 44.1439C12.7719 44.1439 13.0224 44.1439 13.5233 44.1439C13.7737 44.1439 13.8989 44.1439 14.0241 44.1439C14.3998 44.1439 14.7754 44.1439 15.0259 44.2693C15.2763 44.3947 15.4015 44.5201 15.5267 44.6455C15.6519 44.771 15.6519 45.0218 15.6519 45.2726C15.6519 45.7742 15.5267 46.1505 15.1511 46.4013C14.7754 46.6521 14.3998 46.9029 13.8989 46.9029C13.7737 46.9029 13.7737 46.9029 13.6485 46.9029C13.5232 46.9029 13.5233 46.9029 13.398 46.9029C13.398 46.7775 13.2728 46.7775 13.2728 46.6521L13.398 46.5267H13.5233H13.6485C13.8989 46.5267 14.1493 46.4013 14.2746 46.2759C14.3998 46.1505 14.525 45.8996 14.525 45.5234C14.525 45.1472 14.3998 44.8964 14.2746 44.771C14.1493 44.6455 13.8989 44.5201 13.5233 44.5201C13.398 44.5201 13.2728 44.5201 13.0224 44.5201C13.0224 45.2726 13.0224 45.8996 13.0224 46.4013C13.0224 46.5267 13.0224 47.1537 13.0224 48.0316C13.0224 48.4078 13.0224 48.6586 13.0224 48.6586C13.0224 48.6586 13.0224 48.784 13.1476 48.784C13.1476 48.784 13.398 48.784 13.7737 48.9095V49.1603C13.398 49.1603 13.0224 49.1603 12.6467 49.1603C12.7719 49.1603 12.2711 49.1603 11.5198 49.1603ZM25.1685 44.3947C24.918 44.3947 24.7928 44.3947 24.6676 44.5201C24.5424 44.6455 24.4172 45.0218 24.0415 45.8996L22.9146 48.6586C22.6641 49.4111 22.4137 49.9127 22.2885 50.1635C22.1632 50.4144 22.038 50.5398 21.7876 50.6652C21.6624 50.7906 21.4119 50.7906 21.1615 50.7906C20.9111 50.7906 20.7859 50.7906 20.6606 50.6652C20.6606 50.4144 20.7859 50.1635 20.7859 49.9127H20.9111C21.0363 50.0381 21.1615 50.1635 21.4119 50.1635C21.5372 50.1635 21.7876 50.0381 21.9128 49.9127C22.038 49.7873 22.1632 49.5365 22.2885 49.1603C22.1632 48.9095 22.038 48.5332 21.7876 47.9062C21.6624 47.53 21.4119 47.1537 21.2867 46.6521C21.0363 46.025 20.7859 45.5234 20.6606 45.0218C20.4102 44.6455 20.285 44.3947 20.285 44.3947C20.285 44.3947 20.0346 44.3947 19.7841 44.2693V44.0185C20.285 44.0185 20.6606 44.0185 21.0363 44.0185C21.4119 44.0185 21.7876 44.0185 22.1633 44.0185V44.2693C21.9128 44.2693 21.7876 44.2693 21.6624 44.2693C21.5372 44.2693 21.5372 44.3947 21.5372 44.3947C21.5372 44.5201 21.6624 44.771 21.7876 45.2726L22.7893 47.7808L23.5406 45.7742C23.7911 45.0218 24.0415 44.5201 24.0415 44.3947C24.0415 44.3947 24.0415 44.2693 23.9163 44.2693C23.9163 44.2693 23.6659 44.2693 23.4154 44.2693V44.0185C23.7911 44.0185 24.1667 44.0185 24.2919 44.0185C24.4172 44.0185 24.6676 44.0185 25.1685 44.0185V44.3947ZM34.9354 44.3947C34.5598 44.3947 34.4346 44.3947 34.3093 44.5201C34.1841 44.5201 34.1841 45.1472 34.1841 46.2759C34.1841 46.2759 34.1841 46.6521 34.1841 47.1537V48.2824C34.1841 48.5332 34.1841 48.6586 34.1841 48.784V48.9095C34.1841 48.9095 34.1841 48.9095 34.3093 48.9095C34.3093 48.9095 34.5598 48.9095 34.8102 48.9095V49.1603C34.8102 49.1603 34.5598 49.1603 34.4346 49.1603C34.1841 49.1603 33.9337 49.1603 33.6833 49.1603C33.3076 49.1603 32.9319 49.1603 32.4311 49.1603V48.9095C32.8067 48.9095 32.9319 48.9095 32.9319 48.784C32.9319 48.784 33.0572 48.5332 33.0572 48.157C33.0572 47.7808 33.0572 47.0283 33.0572 45.7742V44.5201H32.5563H32.4311H31.4293H30.8033C30.8033 44.6455 30.8033 44.771 30.8033 45.0218C30.8033 45.398 30.8033 45.7742 30.8033 46.025C30.8033 47.2791 30.8033 47.9062 30.8033 48.2824C30.8033 48.5332 30.8033 48.784 30.9285 48.784C30.9285 48.784 31.1789 48.9095 31.4293 48.9095V49.1603C31.4293 49.1603 31.3041 49.1603 31.1789 49.1603C30.8033 49.1603 30.4276 49.1603 30.3024 49.1603C30.1772 49.1603 29.8015 49.1603 29.0502 49.1603V48.9095C29.4259 48.9095 29.5511 48.9095 29.5511 48.784C29.5511 48.784 29.6763 48.6586 29.6763 48.5332C29.6763 48.4078 29.6763 48.157 29.6763 47.53C29.6763 46.025 29.6763 45.1472 29.6763 44.8964C29.6763 44.6455 29.6763 44.3947 29.5511 44.3947C29.5511 44.3947 29.3006 44.2693 28.925 44.2693V44.0185C29.5511 44.0185 29.9267 44.0185 30.3024 44.0185H33.3076C33.558 44.0185 34.0589 44.0185 34.685 44.0185V44.3947H34.9354ZM44.8276 44.3947C44.4519 44.3947 44.3267 44.3947 44.2015 44.5201C44.0763 44.5201 44.0763 45.1472 44.0763 46.2759C44.0763 46.2759 44.0763 46.6521 44.0763 47.1537V48.2824C44.0763 48.5332 44.0763 48.6586 44.0763 48.784V48.9095C44.0763 48.9095 44.0763 48.9095 44.2015 48.9095C44.2015 48.9095 44.4519 48.9095 44.7024 48.9095V49.1603C44.7024 49.1603 44.452 49.1603 44.3267 49.1603C44.0763 49.1603 43.8259 49.1603 43.5754 49.1603C43.1998 49.1603 42.8241 49.1603 42.3232 49.1603V48.9095C42.6989 48.9095 42.8241 48.9095 42.8241 48.784C42.8241 48.784 42.9493 48.5332 42.9493 48.157C42.9493 47.7808 42.9493 47.0283 42.9493 45.7742V44.5201H42.4485H42.3232H41.3215H40.6954C40.6954 44.6455 40.6954 44.771 40.6954 45.0218C40.6954 45.398 40.6954 45.7742 40.6954 46.025C40.6954 47.2791 40.6954 47.9062 40.6954 48.2824C40.6954 48.5332 40.6954 48.784 40.8206 48.784C40.8206 48.784 41.0711 48.9095 41.3215 48.9095V49.1603C41.3215 49.1603 41.1963 49.1603 41.0711 49.1603C40.6954 49.1603 40.3198 49.1603 40.1946 49.1603C40.0693 49.1603 39.6937 49.1603 38.9424 49.1603V48.9095C39.318 48.9095 39.4433 48.9095 39.4433 48.784C39.4433 48.784 39.5685 48.6586 39.5685 48.5332C39.5685 48.4078 39.5685 48.157 39.5685 47.53C39.5685 46.025 39.5685 45.1472 39.5685 44.8964C39.5685 44.6455 39.5685 44.3947 39.4433 44.3947C39.4433 44.3947 39.1928 44.2693 38.8172 44.2693V44.0185C39.4433 44.0185 39.8189 44.0185 40.1946 44.0185H43.1998C43.4502 44.0185 43.9511 44.0185 44.5772 44.0185V44.3947H44.8276ZM49.2102 48.784C49.4606 48.784 49.5859 48.784 49.5859 48.6586C49.5859 48.6586 49.7111 48.5332 49.7111 48.4078C49.8363 48.0316 50.0867 47.6554 50.3372 47.1537L51.5893 44.0185H52.0902L53.718 47.9062C53.9685 48.4078 54.0937 48.6586 54.0937 48.6586C54.0937 48.6586 54.3441 48.784 54.5946 48.784V49.1603C54.2189 49.1603 53.8433 49.1603 53.4676 49.1603C53.0919 49.1603 52.5911 49.1603 52.2154 49.1603V48.784C52.4659 48.784 52.7163 48.784 52.7163 48.784C52.7163 48.784 52.8415 48.784 52.8415 48.6586C52.8415 48.6586 52.8415 48.4078 52.7163 48.157L52.4659 47.53C52.2154 47.53 51.8398 47.53 51.4641 47.53C51.0885 47.53 50.838 47.53 50.5876 47.53L50.4624 47.9062C50.4624 48.0316 50.3372 48.157 50.3372 48.4078V48.5332C50.3372 48.5332 50.3372 48.6586 50.4624 48.6586C50.4624 48.6586 50.7128 48.6586 50.9633 48.784V49.1603C50.7128 49.1603 50.4624 49.1603 50.0867 49.1603C49.7111 49.1603 49.4606 49.1603 49.3354 49.1603V48.784H49.2102ZM51.5893 45.2726L50.838 47.1537C51.0885 47.1537 51.3389 47.1537 51.5893 47.1537C51.8398 47.1537 52.0902 47.1537 52.3406 47.1537L51.5893 45.2726ZM64.3615 49.1603V48.9095C64.6119 48.9095 64.8624 48.9095 64.8624 48.9095C64.8624 48.9095 64.8624 48.784 64.8624 48.6586C64.8624 48.4078 64.8624 48.157 64.8624 47.6554V46.2759C64.8624 45.8996 64.8624 45.5234 64.8624 45.1472C64.8624 44.8964 64.8624 44.6455 64.8624 44.6455C64.8624 44.6455 64.8624 44.6455 64.7372 44.5201C64.7372 44.5201 64.4867 44.5201 64.2363 44.5201V44.2693C64.6119 44.2693 65.1128 44.2693 65.3633 44.2693C65.7389 44.2693 66.1146 44.2693 66.4902 44.2693V44.5201C66.2398 44.5201 65.9893 44.5201 65.9893 44.6455C65.9893 44.6455 65.8641 44.771 65.8641 44.8964C65.8641 45.0218 65.8641 45.6488 65.8641 46.7775C66.1146 46.5267 66.4902 46.2759 66.8659 45.7742C67.3667 45.2726 67.6172 44.8964 67.9928 44.6455V44.5201V44.3947C68.2432 44.3947 68.4937 44.3947 68.6189 44.3947C68.8693 44.3947 68.9946 44.3947 69.245 44.3947V44.6455H68.9946C68.8693 44.6455 68.7441 44.6455 68.6189 44.6455C68.4937 44.6455 68.3685 44.771 68.2432 44.8964C67.9928 45.1472 67.7424 45.398 67.3667 45.7742L66.7406 46.4013L67.1163 46.7775C67.4919 47.2791 67.9928 47.7808 68.4937 48.4078C68.7441 48.784 68.9946 48.9095 68.9946 49.0349C68.9946 49.0349 69.1198 49.0349 69.3702 49.0349V49.2857H69.1198H68.4937C68.3685 49.2857 68.118 49.2857 67.8676 49.2857C67.6172 49.0349 67.3667 48.6586 66.8659 48.0316C66.4902 47.6554 66.2398 47.2791 65.8641 46.9029L65.7389 46.7775C65.7389 46.7775 65.7389 46.7775 65.6137 46.7775C65.6137 46.7775 65.6137 46.9029 65.6137 47.0283V48.157C65.6137 48.5332 65.6137 48.6586 65.6137 48.6586C65.6137 48.6586 65.6137 48.6586 65.7389 48.784C65.7389 48.784 65.9893 48.784 66.2398 48.784V49.0349C65.8641 49.0349 65.4885 49.0349 64.9876 49.0349C65.238 49.1603 64.8624 49.1603 64.3615 49.1603ZM76.6328 49.1603C75.7563 49.1603 75.005 48.9095 74.6293 48.5332C74.1285 48.0316 73.878 47.4045 73.878 46.6521C73.878 46.1505 74.0033 45.6488 74.2537 45.2726C74.5041 44.8964 74.7546 44.5201 75.2554 44.3947C75.6311 44.1439 76.132 44.0185 76.8833 44.0185C77.5093 44.0185 78.0102 44.1439 78.3859 44.2693C78.7615 44.5201 79.1372 44.771 79.2624 45.1472C79.5128 45.5234 79.638 45.8996 79.638 46.5267C79.638 47.1537 79.5128 47.53 79.2624 48.0316C79.0119 48.4078 78.7615 48.784 78.2606 49.0349C77.7598 49.1603 77.2589 49.1603 76.6328 49.1603ZM76.8833 48.784C77.3841 48.784 77.7598 48.6586 78.0102 48.2824C78.2606 47.9062 78.3859 47.4045 78.3859 46.6521C78.3859 45.8996 78.2606 45.2726 77.885 44.8964C77.6346 44.5201 77.2589 44.3947 76.6328 44.3947C76.132 44.3947 75.7563 44.5201 75.3806 44.8964C75.1302 45.2726 75.005 45.7742 75.005 46.5267C75.005 47.0283 75.1302 47.53 75.2554 47.7808C75.3806 48.157 75.6311 48.4078 75.8815 48.5332C76.1319 48.784 76.3824 48.784 76.8833 48.784ZM83.8954 49.1603V48.9095H84.1459C84.2711 48.9095 84.3963 48.9095 84.5215 48.784C84.5215 48.784 84.6467 48.5332 84.6467 48.2824C84.6467 47.6554 84.6467 47.0283 84.6467 46.4013C84.6467 46.025 84.6467 45.6488 84.6467 45.1472C84.6467 44.8964 84.6467 44.6455 84.6467 44.6455C84.6467 44.6455 84.6467 44.6455 84.5215 44.5201C84.5215 44.5201 84.2711 44.5201 84.0206 44.5201V44.2693C84.2711 44.2693 84.6467 44.2693 84.8972 44.2693C85.2728 44.2693 85.5232 44.2693 85.8989 44.2693C86.0241 44.5201 86.1493 44.8964 86.2746 45.1472C86.3998 45.398 86.7754 46.2759 87.5267 47.9062C88.4033 46.2759 88.9041 45.0218 89.2798 44.2693C89.5302 44.2693 89.9059 44.2693 90.1563 44.2693C90.4067 44.2693 90.7824 44.2693 91.0328 44.2693V44.5201C90.6572 44.5201 90.5319 44.5201 90.5319 44.6455C90.5319 44.6455 90.4067 44.771 90.4067 45.0218C90.4067 45.2726 90.4067 45.8996 90.4067 46.7775C90.4067 47.1537 90.4067 47.6554 90.4067 48.157C90.4067 48.6586 90.4067 48.9095 90.4067 48.9095C90.4067 48.9095 90.4067 49.0349 90.5319 49.0349C90.5319 49.0349 90.7824 49.0349 91.0328 49.1603V49.4111C90.6572 49.4111 90.2815 49.4111 90.0311 49.4111C89.7806 49.4111 89.2798 49.4111 88.7789 49.4111V48.9095H89.0293C89.1545 48.9095 89.2798 48.9095 89.2798 48.784C89.2798 48.784 89.405 48.6586 89.405 48.4078C89.405 48.2824 89.405 47.7808 89.405 47.1537V45.0218C89.0293 45.7742 88.5285 46.7775 88.0276 47.9062C87.7772 48.4078 87.6519 48.784 87.5267 49.1603H87.2763C87.1511 48.784 86.9006 48.157 86.525 47.53L85.2728 44.8964V45.398C85.2728 46.7775 85.2728 47.6554 85.2728 48.157C85.2728 48.4078 85.2728 48.5332 85.398 48.5332C85.398 48.5332 85.6485 48.6586 85.8989 48.6586V48.9095C85.6485 48.9095 85.398 48.9095 85.1476 48.9095C84.5215 49.1603 84.1459 49.1603 83.8954 49.1603ZM100.8 44.3947C100.424 44.3947 100.299 44.3947 100.174 44.5201C100.048 44.5201 100.048 45.1472 100.048 46.2759C100.048 46.2759 100.048 46.6521 100.048 47.1537V48.2824C100.048 48.5332 100.048 48.6586 100.048 48.784V48.9095C100.048 48.9095 100.048 48.9095 100.174 48.9095C100.174 48.9095 100.424 48.9095 100.675 48.9095V49.1603C100.675 49.1603 100.424 49.1603 100.299 49.1603C100.048 49.1603 99.798 49.1603 99.5476 49.1603C99.1719 49.1603 98.7963 49.1603 98.2954 49.1603V48.9095C98.6711 48.9095 98.7963 48.9095 98.7963 48.784C98.7963 48.784 98.9215 48.5332 98.9215 48.157C98.9215 47.7808 98.9215 47.0283 98.9215 45.7742V44.5201H98.4206H98.2954H97.2937H96.6676C96.6676 44.6455 96.6676 44.771 96.6676 45.0218C96.6676 45.398 96.6676 45.7742 96.6676 46.025C96.6676 47.2791 96.6676 47.9062 96.6676 48.2824C96.6676 48.5332 96.6676 48.784 96.7928 48.784C96.7928 48.784 97.0432 48.9095 97.2937 48.9095V49.1603C97.2937 49.1603 97.1685 49.1603 97.0432 49.1603C96.6676 49.1603 96.2919 49.1603 96.1667 49.1603C96.0415 49.1603 95.6659 49.1603 94.9146 49.1603V48.9095C95.2902 48.9095 95.4154 48.9095 95.4154 48.784C95.4154 48.784 95.5406 48.6586 95.5406 48.5332C95.5406 48.4078 95.5406 48.157 95.5406 47.53C95.5406 46.025 95.5406 45.1472 95.5406 44.8964C95.5406 44.6455 95.5406 44.3947 95.4154 44.3947C95.4154 44.3947 95.165 44.2693 94.7893 44.2693V44.0185C95.4154 44.0185 95.7911 44.0185 96.1667 44.0185H99.1719C99.4224 44.0185 99.9232 44.0185 100.549 44.0185V44.3947H100.8ZM105.057 48.784C105.308 48.784 105.433 48.784 105.433 48.6586C105.433 48.6586 105.558 48.5332 105.558 48.4078C105.683 48.0316 105.934 47.6554 106.184 47.1537L107.436 44.0185H107.937L109.565 47.9062C109.815 48.4078 109.941 48.6586 109.941 48.6586C109.941 48.6586 110.191 48.784 110.442 48.784V49.1603C110.066 49.1603 109.69 49.1603 109.315 49.1603C108.939 49.1603 108.438 49.1603 108.062 49.1603V48.784C108.313 48.784 108.563 48.784 108.563 48.784C108.563 48.784 108.688 48.784 108.688 48.6586C108.688 48.6586 108.688 48.4078 108.563 48.157L108.313 47.53C108.062 47.53 107.687 47.53 107.311 47.53C106.935 47.53 106.685 47.53 106.435 47.53L106.309 47.9062C106.309 48.0316 106.184 48.157 106.184 48.4078V48.5332C106.184 48.5332 106.184 48.6586 106.309 48.6586C106.309 48.6586 106.56 48.6586 106.81 48.784V49.1603C106.56 49.1603 106.309 49.1603 105.934 49.1603C105.558 49.1603 105.308 49.1603 105.182 49.1603V48.784H105.057ZM107.436 45.2726L106.685 47.1537C106.935 47.1537 107.186 47.1537 107.436 47.1537C107.687 47.1537 107.937 47.1537 108.188 47.1537L107.436 45.2726ZM114.699 49.1603V48.9095C115.075 48.9095 115.2 48.9095 115.2 48.784L115.325 48.6586C115.325 48.5332 115.325 48.157 115.325 47.6554V45.6488C115.325 45.0218 115.325 44.6455 115.325 44.5201V44.3947C115.325 44.3947 115.075 44.3947 114.824 44.2693V44.0185C115.325 44.0185 115.701 44.0185 115.951 44.0185C116.452 44.0185 116.828 44.0185 117.203 44.0185V44.2693C116.953 44.2693 116.702 44.2693 116.702 44.3947C116.702 44.3947 116.702 44.3947 116.577 44.5201C116.577 44.5201 116.577 44.6455 116.577 44.8964C116.577 45.2726 116.577 45.6488 116.577 45.8996V46.1505C116.828 46.1505 117.203 46.1505 117.829 46.1505C118.33 46.1505 118.706 46.1505 118.956 46.1505C118.956 45.398 118.956 44.8964 118.956 44.6455C118.956 44.5201 118.956 44.3947 118.831 44.3947C118.831 44.3947 118.581 44.2693 118.33 44.2693V44.0185C118.956 44.0185 119.332 44.0185 119.582 44.0185C119.958 44.0185 120.334 44.0185 120.709 44.0185V44.2693C120.459 44.2693 120.208 44.2693 120.208 44.3947C120.208 44.3947 120.208 44.3947 120.083 44.5201C120.083 44.5201 120.083 44.771 120.083 45.1472C120.083 45.6488 120.083 46.1505 120.083 46.4013V48.0316C120.083 48.4078 120.083 48.6586 120.083 48.6586C120.083 48.6586 120.083 48.784 120.208 48.784C120.208 48.784 120.459 48.784 120.709 48.9095V49.1603H120.334C120.083 49.1603 119.833 49.1603 119.582 49.1603C119.207 49.1603 118.831 49.1603 118.33 49.1603V48.9095C118.706 48.9095 118.831 48.9095 118.831 48.784C118.831 48.784 118.956 48.6586 118.956 48.5332C118.956 48.2824 118.956 47.6554 118.956 46.7775C118.706 46.7775 118.33 46.7775 118.08 46.7775C117.579 46.7775 117.078 46.7775 116.702 46.7775V47.0283C116.702 47.6554 116.702 48.157 116.702 48.4078C116.702 48.6586 116.702 48.784 116.828 48.784C116.828 48.784 117.078 48.9095 117.328 48.9095V49.1603H116.953C116.702 49.1603 116.452 49.1603 116.202 49.1603H114.699ZM130.476 44.0185V44.2693C130.101 44.2693 129.975 44.2693 129.85 44.3947C129.85 44.3947 129.725 45.0218 129.725 46.025C129.725 47.1537 129.725 47.9062 129.725 48.157C129.725 48.4078 129.725 48.6586 129.85 48.6586C129.85 48.6586 130.101 48.784 130.476 48.784V49.0349C130.476 49.0349 130.351 49.0349 130.226 49.0349C129.85 49.0349 129.475 49.0349 129.349 49.0349C129.224 49.0349 128.848 49.0349 128.097 49.0349V48.9095C128.473 48.9095 128.598 48.9095 128.723 48.784C128.723 48.784 128.848 48.4078 128.848 47.6554V45.6488C128.848 45.5234 128.848 45.2726 128.848 45.0218L128.348 45.7742C127.722 46.9029 127.221 47.7808 126.97 48.157C126.72 48.5332 126.469 48.9095 126.094 49.2857C125.718 49.2857 125.593 49.4111 125.468 49.4111C125.468 49.0349 125.468 48.0316 125.468 46.5267C125.468 45.398 125.468 44.771 125.468 44.6455C125.468 44.5201 125.217 44.5201 124.841 44.5201V44.2693C125.342 44.2693 125.718 44.2693 125.843 44.2693C126.344 44.2693 126.845 44.2693 127.221 44.2693V44.5201C126.845 44.5201 126.72 44.5201 126.595 44.6455C126.595 44.6455 126.469 45.2726 126.469 46.2759C126.469 46.4013 126.469 47.1537 126.469 48.157L126.97 47.4045C127.722 46.2759 128.348 45.1472 128.848 44.2693H129.224C129.6 44.0185 129.975 44.0185 130.476 44.0185ZM140.494 44.0185V44.2693C140.118 44.2693 139.993 44.2693 139.868 44.3947C139.868 44.3947 139.742 45.0218 139.742 46.025C139.742 47.1537 139.742 47.9062 139.742 48.157C139.742 48.4078 139.742 48.6586 139.868 48.6586C139.868 48.6586 140.118 48.784 140.494 48.784V49.0349C140.494 49.0349 140.368 49.0349 140.243 49.0349C139.868 49.0349 139.492 49.0349 139.367 49.0349C139.242 49.0349 138.866 49.0349 138.115 49.0349V48.9095C138.49 48.9095 138.615 48.9095 138.741 48.784C138.741 48.784 138.866 48.4078 138.866 47.6554V45.6488C138.866 45.5234 138.866 45.2726 138.866 45.0218L138.365 45.7742C137.739 46.9029 137.238 47.7808 136.988 48.157C136.737 48.5332 136.487 48.9095 136.111 49.2857C135.735 49.2857 135.61 49.4111 135.485 49.4111C135.485 49.0349 135.485 48.0316 135.485 46.5267C135.485 45.398 135.485 44.771 135.485 44.6455C135.485 44.5201 135.235 44.5201 134.859 44.5201V44.2693C135.36 44.2693 135.735 44.2693 135.861 44.2693C136.362 44.2693 136.862 44.2693 137.238 44.2693V44.5201C136.862 44.5201 136.737 44.5201 136.612 44.6455C136.612 44.6455 136.487 45.2726 136.487 46.2759C136.487 46.4013 136.487 47.1537 136.487 48.157L136.988 47.4045C137.739 46.2759 138.365 45.1472 138.866 44.2693H139.242C139.617 44.0185 140.118 44.0185 140.494 44.0185ZM139.116 43.0152C138.866 43.1406 138.741 43.1406 138.615 43.266C137.864 43.266 137.238 43.1406 136.487 43.0152V42.8898C136.737 42.7644 136.988 42.639 137.238 42.3882C137.739 42.639 138.365 42.8898 139.116 43.0152Z" fill="white"/>
</g>
<defs>
<clipPath id="clip0">
<rect width="144" height="50.7907" fill="white"/>
</clipPath>
</defs>
</svg>
