<svg width="108" height="39" viewBox="0 0 108 39" fill="none" xmlns="http://www.w3.org/2000/svg">
<g clip-path="url(#clip0)">
<path fill-rule="evenodd" clip-rule="evenodd" d="M24.0417 13.6353C23.4783 13.6353 22.9148 13.6353 22.9148 12.6948C22.9148 11.5661 23.3843 10.2493 24.0417 9.59089C24.6991 8.74438 25.6383 8.2741 26.7652 8.2741C27.8922 8.2741 29.0191 9.12061 29.0191 11.0958C29.0191 13.2591 27.6104 13.6353 25.4504 13.6353H24.0417ZM77.3843 3.47719C84.24 3.47719 89.7809 9.02655 89.7809 15.8927C89.7809 22.7589 84.24 28.3082 77.3843 28.3082C70.5287 28.3082 64.9878 22.7589 64.9878 15.8927C64.9878 9.02655 70.5287 3.47719 77.3843 3.47719ZM77.3843 5.45239C75.0365 5.45239 72.8765 6.20484 71.0922 7.52164H79.0748L71.7496 24.734C73.3461 25.7687 75.3183 26.333 77.2904 26.333C78.6991 26.333 80.1078 26.0508 81.3287 25.4865V21.9123H74.6609L81.3287 6.20484C80.1078 5.6405 78.793 5.45239 77.3843 5.45239ZM84.6156 8.36815V18.9966H87.3391C87.6209 18.056 87.8087 16.9273 87.8087 15.8927C87.8087 12.8829 86.5878 10.2493 84.6156 8.36815ZM85.8365 21.9123H84.5217V23.4173C85.0852 22.947 85.4609 22.4767 85.8365 21.9123ZM69.4017 22.6648L74.567 10.4374H68.4626C67.5235 12.0364 66.96 13.9175 66.96 15.8927C66.8661 18.4322 67.8052 20.8777 69.4017 22.6648ZM81.3287 18.9966V13.7294L79.0748 18.9966H81.3287ZM77.3843 4.32371C70.9983 4.32371 65.833 9.49683 65.833 15.8927C65.833 22.2886 70.9983 27.4617 77.3843 27.4617C83.7704 27.4617 88.9356 22.2886 88.9356 15.8927C88.9356 9.49683 83.7704 4.32371 77.3843 4.32371ZM0 30.0012H108V30.5656H0V30.0012ZM92.0348 22.1945C92.0348 23.6994 91.753 24.64 90.5322 24.734C90.3443 24.734 89.8748 24.734 89.8748 25.2043C89.8748 25.7687 90.3443 25.7687 90.6261 25.7687H97.3878C98.0452 25.7687 98.0452 25.4865 98.0452 25.2043C98.0452 24.64 97.6696 24.734 97.4817 24.734C95.8852 24.64 95.9791 22.8529 95.9791 22.1945V17.3976C95.9791 16.8333 95.9791 16.6452 96.6365 16.6452H101.332C101.802 16.6452 101.802 17.2095 101.802 17.4917V22.1945C101.802 23.6054 101.52 24.64 100.299 24.734C100.017 24.734 99.7356 24.734 99.7356 25.2043C99.7356 25.4865 99.7356 25.7687 100.393 25.7687H107.155C107.343 25.7687 107.906 25.7687 107.906 25.2043C107.906 24.734 107.437 24.734 107.343 24.734C106.122 24.64 105.84 23.6994 105.84 22.1945V11.0958C105.84 9.59089 106.122 8.65032 107.343 8.55627C107.53 8.55627 107.906 8.55627 107.906 8.08598C107.906 7.52164 107.437 7.52164 107.155 7.52164H100.393C99.7356 7.52164 99.7356 7.80381 99.7356 8.08598C99.7356 8.55627 100.111 8.55627 100.299 8.55627C101.614 8.65032 101.802 9.77901 101.802 11.0958V14.764C101.802 15.1402 101.896 15.5165 101.332 15.5165H96.6365C96.073 15.5165 96.073 15.1402 96.073 14.764V11.0958C96.073 10.4374 95.9791 8.65032 97.5757 8.55627C97.7635 8.55627 98.1391 8.55627 98.1391 8.08598C98.1391 7.80381 98.1391 7.52164 97.4817 7.52164H90.72C90.5322 7.52164 89.9687 7.52164 89.9687 8.08598C89.9687 8.46221 90.3443 8.46221 90.5322 8.46221C91.753 8.55627 92.0348 9.49683 92.0348 11.0017V22.1945ZM57.5687 14.4818C57.6626 14.3878 57.8504 14.2937 58.0383 14.2937C58.32 14.2937 58.6017 14.5759 58.6017 14.8581V22.1945C58.6017 23.6054 58.32 24.64 57.0991 24.734C56.8174 24.734 56.5357 24.734 56.5357 25.2043C56.5357 25.4865 56.5357 25.7687 57.193 25.7687H63.9548C64.1426 25.7687 64.7061 25.7687 64.7061 25.2043C64.7061 24.734 64.2365 24.734 64.1426 24.734C62.9217 24.64 62.64 23.6994 62.64 22.1945V11.0958C62.64 9.59089 62.9217 8.65032 64.1426 8.55627C64.3304 8.55627 64.7061 8.55627 64.7061 8.08598C64.7061 7.52164 64.2365 7.52164 63.9548 7.52164H57.193C56.5357 7.52164 56.5357 7.80381 56.5357 8.08598C56.4417 8.46221 56.8174 8.46221 57.0052 8.46221C57.8504 8.55627 58.5078 9.12061 58.5078 10.7196V10.9077L53.5304 18.4322C53.4365 18.5263 53.2487 18.6204 53.0609 18.6204C52.7791 18.6204 52.4974 18.3382 52.4974 18.056V10.9077C52.4974 10.2493 52.4035 8.46221 54 8.36815C54.1878 8.36815 54.5635 8.36815 54.5635 7.89787C54.5635 7.6157 54.5635 7.33353 53.9061 7.33353H47.1443C46.9565 7.33353 46.393 7.33353 46.393 7.89787C46.487 8.46221 46.9565 8.46221 47.1443 8.46221C48.3652 8.55627 48.647 9.49683 48.647 11.0017V22.1005C48.647 23.6054 48.3652 24.5459 47.1443 24.64C46.9565 24.64 46.487 24.64 46.487 25.1103C46.487 25.6746 46.9565 25.6746 47.2383 25.6746H54C54.6574 25.6746 54.6574 25.3924 54.6574 25.1103C54.6574 24.5459 54.2817 24.64 54.0939 24.64C52.4974 24.5459 52.5913 22.7589 52.5913 22.1005V21.9123L57.5687 14.4818ZM35.3113 22.1945C35.3113 23.6994 35.0296 24.64 33.8087 24.734C33.6209 24.734 33.1513 24.734 33.1513 25.2043C33.1513 25.7687 33.6209 25.7687 33.9026 25.7687H40.9461C41.6035 25.7687 41.6035 25.4865 41.6035 25.2043C41.6035 24.64 41.2278 24.734 41.04 24.734C39.1617 24.64 39.3496 22.947 39.3496 22.1945V9.96712C39.3496 9.30872 39.2556 8.93249 40.9461 8.93249C43.9513 8.93249 44.1391 9.59089 45.0783 11.8483C45.36 12.4126 45.4539 12.5067 45.7357 12.5067C45.9235 12.5067 46.1113 12.4126 46.2052 12.0364C46.2052 11.8483 46.2052 11.6601 46.2052 11.472C46.2052 11.0958 46.1113 10.7196 46.1113 10.3433C46.1113 9.77901 46.0174 9.12061 46.1113 8.55627C46.1113 8.46221 46.1113 8.2741 46.1113 8.18004C46.1113 7.52164 45.8296 7.52164 45.4539 7.52164H33.9026C33.7148 7.52164 33.1513 7.52164 33.1513 8.08598C33.1513 8.46221 33.6209 8.46221 33.8087 8.46221C35.1235 8.55627 35.3113 9.77901 35.3113 11.0017V22.1945ZM7.70087 4.60588C7.70087 3.85342 7.70087 2.8188 7.79478 2.25445C8.07652 1.12577 9.3913 1.502 9.95478 1.502C10.4243 1.502 10.8 1.69011 11.1757 1.97228C12.3965 3.00691 13.1478 5.6405 13.1478 7.89787C13.1478 9.96712 12.3965 12.6948 9.86087 12.6948C9.48522 12.6948 8.45217 12.6007 8.17043 12.5067C7.8887 12.3185 7.60696 11.9423 7.60696 11.2839V4.60588H7.70087ZM2.81739 21.348C2.81739 22.947 2.62957 23.9816 1.4087 24.4519C0.751304 24.64 0.281739 24.3578 0.281739 25.1103C0.281739 25.8627 0.93913 25.8627 1.12696 25.8627H9.57913C10.4243 25.8627 10.4243 25.4865 10.4243 25.1103C10.4243 24.4519 9.86087 24.4519 9.67304 24.4519C7.8887 24.3578 7.70087 22.8529 7.70087 21.348V14.4818C7.70087 14.2937 7.70087 13.9175 8.07652 13.9175C8.26435 13.9175 8.45217 14.0116 8.92174 14.1056C9.95478 14.4818 11.3635 14.764 12.5843 14.764C15.8713 14.764 18.2191 11.6601 18.2191 7.89787C18.2191 3.28908 15.2139 1.21983 13.0539 0.467374C11.6452 -0.0969674 9.57913 -0.0029105 8.17043 -0.0029105H1.12696C0.845217 -0.0029105 0.187826 -0.00291049 0.187826 0.749545C0.187826 1.502 0.751304 1.21983 1.31478 1.40794C2.62957 1.87823 2.81739 2.91285 2.81739 4.51182V21.348ZM30.9913 14.764C31.5548 14.764 32.4 14.764 32.4 13.2591C32.4 10.2493 30.1461 7.14541 26.0139 7.14541C21.1304 7.14541 18.313 11.0017 18.313 16.5511C18.313 21.1599 20.567 24.64 23.5722 25.8627C26.1078 26.8974 29.3948 26.0508 31.273 24.0757C31.9304 23.4173 32.5878 22.5707 32.5878 22.0064C32.5878 21.5361 32.4939 21.6302 32.3061 21.6302C32.0243 21.6302 31.8365 21.9123 31.1791 22.4767C28.6435 24.5459 25.0748 23.4173 23.5722 20.6896C22.9148 19.4669 22.4452 17.8679 22.4452 16.0808C22.4452 14.5759 22.633 14.67 23.1026 14.67H30.9913V14.764Z" fill="#0A0A0A"/>
<path fill-rule="evenodd" clip-rule="evenodd" d="M2.72282 36.8701V36.682C2.81673 36.682 2.91065 36.682 3.00456 36.682C3.09847 36.682 3.09847 36.682 3.09847 36.682C3.09847 36.682 3.09847 36.682 3.09847 36.5879C3.09847 36.5879 3.09847 36.3998 3.09847 36.1176C3.09847 35.8355 3.09847 35.5533 3.09847 35.2711C3.09847 34.7068 3.09847 34.2365 3.09847 33.9543C3.09847 33.6722 3.09847 33.484 3.00456 33.484C3.00456 33.484 2.81673 33.39 2.62891 33.39V33.2019C2.91065 33.2019 3.19238 33.2019 3.47412 33.2019C3.75586 33.2019 4.13152 33.2019 4.50717 33.2019C4.78891 33.2019 4.97673 33.2019 5.16456 33.2019C5.25847 33.2019 5.35238 33.2019 5.4463 33.2019V33.2959C5.4463 33.484 5.35238 33.7662 5.35238 34.1424H5.16456C5.16456 33.8603 5.16456 33.7662 5.16456 33.6722C5.16456 33.6722 5.07065 33.5781 4.97673 33.5781C4.88282 33.5781 4.69499 33.5781 4.50717 33.5781C4.31934 33.5781 4.13152 33.5781 4.0376 33.5781C4.0376 33.9543 4.0376 34.4246 4.0376 34.9889C4.0376 35.2711 4.0376 35.5533 4.0376 36.0236C4.0376 36.4939 4.0376 36.682 4.0376 36.682C4.0376 36.682 4.0376 36.776 4.13152 36.776C4.13152 36.776 4.31934 36.776 4.60108 36.776V36.9641C4.31934 36.9641 4.0376 36.9641 3.75586 36.9641C3.47412 36.8701 3.09847 36.8701 2.72282 36.8701ZM8.63934 36.8701V36.682C8.82717 36.682 9.01499 36.682 9.01499 36.5879C9.01499 36.5879 9.01499 36.5879 9.10891 36.4939C9.10891 36.4939 9.10891 36.3057 9.10891 35.9295C9.10891 35.5533 9.10891 35.2711 9.10891 34.9889C9.10891 34.4246 9.10891 33.9543 9.10891 33.7662C9.10891 33.484 9.10891 33.39 9.01499 33.39C9.01499 33.39 8.92108 33.2959 8.82717 33.2959H8.63934V33.1078H8.92108C9.10891 33.1078 9.29673 33.1078 9.39065 33.1078C9.57847 33.1078 9.7663 33.1078 10.142 33.1078C10.3298 33.1078 10.4237 33.1078 10.5176 33.1078C10.7993 33.1078 11.0811 33.1078 11.2689 33.2019C11.4567 33.2959 11.5506 33.39 11.6446 33.484C11.7385 33.5781 11.7385 33.7662 11.7385 33.9543C11.7385 34.3305 11.6446 34.6127 11.3628 34.8008C11.0811 34.9889 10.7993 35.1771 10.4237 35.1771C10.3298 35.1771 10.3298 35.1771 10.2359 35.1771C10.1419 35.1771 10.1419 35.1771 10.048 35.1771C10.048 35.083 9.95412 35.083 9.95412 34.9889L10.048 34.8949H10.142H10.2359C10.4237 34.8949 10.6115 34.8008 10.7054 34.7068C10.7993 34.6127 10.8933 34.4246 10.8933 34.1424C10.8933 33.8603 10.7993 33.6722 10.7054 33.5781C10.6115 33.484 10.4237 33.39 10.142 33.39C10.048 33.39 9.95412 33.39 9.7663 33.39C9.7663 33.9543 9.7663 34.4246 9.7663 34.8008C9.7663 34.8949 9.7663 35.3652 9.7663 36.0236C9.7663 36.3057 9.7663 36.4939 9.7663 36.4939C9.7663 36.4939 9.7663 36.5879 9.86021 36.5879C9.86021 36.5879 10.048 36.5879 10.3298 36.682V36.8701C10.048 36.8701 9.7663 36.8701 9.48456 36.8701C9.57847 36.8701 9.20282 36.8701 8.63934 36.8701ZM18.8759 33.2959C18.688 33.2959 18.5941 33.2959 18.5002 33.39C18.4063 33.484 18.3124 33.7662 18.0306 34.4246L17.1854 36.4939C16.9976 37.0582 16.8098 37.4344 16.7159 37.6225C16.6219 37.8106 16.528 37.9047 16.3402 37.9988C16.2463 38.0928 16.0585 38.0928 15.8706 38.0928C15.6828 38.0928 15.5889 38.0928 15.495 37.9988C15.495 37.8107 15.5889 37.6225 15.5889 37.4344H15.6828C15.7767 37.5285 15.8706 37.6225 16.0585 37.6225C16.1524 37.6225 16.3402 37.5285 16.4341 37.4344C16.528 37.3404 16.6219 37.1523 16.7159 36.8701C16.6219 36.682 16.528 36.3998 16.3402 35.9295C16.2463 35.6473 16.0585 35.3652 15.9646 34.9889C15.7767 34.5187 15.5889 34.1424 15.495 33.7662C15.3072 33.484 15.2133 33.2959 15.2133 33.2959C15.2133 33.2959 15.0254 33.2959 14.8376 33.2019V33.0138C15.2133 33.0138 15.495 33.0138 15.7767 33.0138C16.0585 33.0138 16.3402 33.0138 16.622 33.0138V33.2019C16.4341 33.2019 16.3402 33.2019 16.2463 33.2019C16.1524 33.2019 16.1524 33.2959 16.1524 33.2959C16.1524 33.39 16.2463 33.5781 16.3402 33.9543L17.0915 35.8355L17.655 34.3305C17.8428 33.7662 18.0306 33.39 18.0306 33.2959C18.0306 33.2959 18.0306 33.2019 17.9367 33.2019C17.9367 33.2019 17.7489 33.2019 17.5611 33.2019V33.0138C17.8428 33.0138 18.1246 33.0138 18.2185 33.0138C18.3124 33.0138 18.5002 33.0138 18.8759 33.0138V33.2959ZM26.2011 33.2959C25.9193 33.2959 25.8254 33.2959 25.7315 33.39C25.6376 33.39 25.6376 33.8603 25.6376 34.7068C25.6376 34.7068 25.6376 34.9889 25.6376 35.3652V36.2117C25.6376 36.3998 25.6376 36.4939 25.6376 36.5879V36.682C25.6376 36.682 25.6376 36.682 25.7315 36.682C25.7315 36.682 25.9193 36.682 26.1072 36.682V36.8701C26.1072 36.8701 25.9193 36.8701 25.8254 36.8701C25.6376 36.8701 25.4498 36.8701 25.262 36.8701C24.9802 36.8701 24.6985 36.8701 24.3228 36.8701V36.682C24.6046 36.682 24.6985 36.682 24.6985 36.5879C24.6985 36.5879 24.7924 36.3998 24.7924 36.1176C24.7924 35.8355 24.7924 35.2711 24.7924 34.3305V33.39H24.4167H24.3228H23.5715H23.102C23.102 33.484 23.102 33.5781 23.102 33.7662C23.102 34.0484 23.102 34.3305 23.102 34.5187C23.102 35.4592 23.102 35.9295 23.102 36.2117C23.102 36.3998 23.102 36.5879 23.1959 36.5879C23.1959 36.5879 23.3837 36.682 23.5715 36.682V36.8701C23.5715 36.8701 23.4776 36.8701 23.3837 36.8701C23.102 36.8701 22.8202 36.8701 22.7263 36.8701C22.6324 36.8701 22.3506 36.8701 21.7872 36.8701V36.682C22.0689 36.682 22.1628 36.682 22.1628 36.5879C22.1628 36.5879 22.2567 36.4939 22.2567 36.3998C22.2567 36.3057 22.2567 36.1176 22.2567 35.6473C22.2567 34.5187 22.2567 33.8603 22.2567 33.6722C22.2567 33.484 22.2567 33.2959 22.1628 33.2959C22.1628 33.2959 21.975 33.2019 21.6933 33.2019V33.0138C22.1628 33.0138 22.4446 33.0138 22.7263 33.0138H24.9802C25.168 33.0138 25.5437 33.0138 26.0133 33.0138V33.2959H26.2011ZM33.6202 33.2959C33.3385 33.2959 33.2446 33.2959 33.1506 33.39C33.0567 33.39 33.0567 33.8603 33.0567 34.7068C33.0567 34.7068 33.0567 34.9889 33.0567 35.3652V36.2117C33.0567 36.3998 33.0567 36.4939 33.0567 36.5879V36.682C33.0567 36.682 33.0567 36.682 33.1506 36.682C33.1506 36.682 33.3385 36.682 33.5263 36.682V36.8701C33.5263 36.8701 33.3385 36.8701 33.2446 36.8701C33.0567 36.8701 32.8689 36.8701 32.6811 36.8701C32.3993 36.8701 32.1176 36.8701 31.742 36.8701V36.682C32.0237 36.682 32.1176 36.682 32.1176 36.5879C32.1176 36.5879 32.2115 36.3998 32.2115 36.1176C32.2115 35.8355 32.2115 35.2711 32.2115 34.3305V33.39H31.8359H31.742H30.9906H30.5211C30.5211 33.484 30.5211 33.5781 30.5211 33.7662C30.5211 34.0484 30.5211 34.3305 30.5211 34.5187C30.5211 35.4592 30.5211 35.9295 30.5211 36.2117C30.5211 36.3998 30.5211 36.5879 30.615 36.5879C30.615 36.5879 30.8028 36.682 30.9906 36.682V36.8701C30.9906 36.8701 30.8967 36.8701 30.8028 36.8701C30.5211 36.8701 30.2393 36.8701 30.1454 36.8701C30.0515 36.8701 29.7698 36.8701 29.2063 36.8701V36.682C29.488 36.682 29.582 36.682 29.582 36.5879C29.582 36.5879 29.6759 36.4939 29.6759 36.3998C29.6759 36.3057 29.6759 36.1176 29.6759 35.6473C29.6759 34.5187 29.6759 33.8603 29.6759 33.6722C29.6759 33.484 29.6759 33.2959 29.582 33.2959C29.582 33.2959 29.3941 33.2019 29.1124 33.2019V33.0138C29.582 33.0138 29.8637 33.0138 30.1454 33.0138H32.3993C32.5872 33.0138 32.9628 33.0138 33.4324 33.0138V33.2959H33.6202ZM36.9072 36.5879C37.095 36.5879 37.1889 36.5879 37.1889 36.4939C37.1889 36.4939 37.2828 36.3998 37.2828 36.3057C37.3767 36.0236 37.5646 35.7414 37.7524 35.3652L38.6915 33.0138H39.0672L40.288 35.9295C40.4759 36.3057 40.5698 36.4939 40.5698 36.4939C40.5698 36.4939 40.7576 36.5879 40.9454 36.5879V36.8701C40.6637 36.8701 40.382 36.8701 40.1002 36.8701C39.8185 36.8701 39.4428 36.8701 39.1611 36.8701V36.5879C39.3489 36.5879 39.5367 36.5879 39.5367 36.5879C39.5367 36.5879 39.6306 36.5879 39.6306 36.4939C39.6306 36.4939 39.6306 36.3057 39.5367 36.1176L39.3489 35.6473C39.1611 35.6473 38.8793 35.6473 38.5976 35.6473C38.3159 35.6473 38.128 35.6473 37.9402 35.6473L37.8463 35.9295C37.8463 36.0236 37.7524 36.1176 37.7524 36.3057V36.3998C37.7524 36.3998 37.7524 36.4939 37.8463 36.4939C37.8463 36.4939 38.0341 36.4939 38.222 36.5879V36.8701C38.0341 36.8701 37.8463 36.8701 37.5646 36.8701C37.2828 36.8701 37.095 36.8701 37.0011 36.8701V36.5879H36.9072ZM38.6915 33.9543L38.128 35.3652C38.3159 35.3652 38.5037 35.3652 38.6915 35.3652C38.8793 35.3652 39.0672 35.3652 39.255 35.3652L38.6915 33.9543ZM48.2706 36.8701V36.682C48.4585 36.682 48.6463 36.682 48.6463 36.682C48.6463 36.682 48.6463 36.5879 48.6463 36.4939C48.6463 36.3057 48.6463 36.1176 48.6463 35.7414V34.7068C48.6463 34.4246 48.6463 34.1424 48.6463 33.8603C48.6463 33.6722 48.6463 33.484 48.6463 33.484C48.6463 33.484 48.6463 33.484 48.5524 33.39C48.5524 33.39 48.3646 33.39 48.1767 33.39V33.2019C48.4585 33.2019 48.8341 33.2019 49.022 33.2019C49.3037 33.2019 49.5854 33.2019 49.8672 33.2019V33.39C49.6793 33.39 49.4915 33.39 49.4915 33.484C49.4915 33.484 49.3976 33.5781 49.3976 33.6722C49.3976 33.7662 49.3976 34.2365 49.3976 35.083C49.5854 34.8949 49.8672 34.7068 50.1489 34.3305C50.5246 33.9543 50.7124 33.6722 50.9941 33.484V33.39V33.2959C51.182 33.2959 51.3698 33.2959 51.4637 33.2959C51.6515 33.2959 51.7454 33.2959 51.9333 33.2959V33.484H51.7454C51.6515 33.484 51.5576 33.484 51.4637 33.484C51.3698 33.484 51.2759 33.5781 51.182 33.6722C50.9941 33.8603 50.8063 34.0484 50.5246 34.3305L50.055 34.8008L50.3367 35.083C50.6185 35.4592 50.9941 35.8355 51.3698 36.3057C51.5576 36.5879 51.7454 36.682 51.7454 36.776C51.7454 36.776 51.8393 36.776 52.0272 36.776V36.9641H51.8393H51.3698C51.2759 36.9641 51.088 36.9641 50.9002 36.9641C50.7124 36.776 50.5246 36.4939 50.1489 36.0236C49.8672 35.7414 49.6793 35.4592 49.3976 35.1771L49.3037 35.083C49.3037 35.083 49.3037 35.083 49.2098 35.083C49.2098 35.083 49.2098 35.1771 49.2098 35.2711V36.1176C49.2098 36.3998 49.2098 36.4939 49.2098 36.4939C49.2098 36.4939 49.2098 36.4939 49.3037 36.5879C49.3037 36.5879 49.4915 36.5879 49.6793 36.5879V36.776C49.3976 36.776 49.1159 36.776 48.7402 36.776C48.928 36.8701 48.6463 36.8701 48.2706 36.8701ZM57.4741 36.8701C56.8167 36.8701 56.2533 36.682 55.9715 36.3998C55.5959 36.0236 55.408 35.5533 55.408 34.9889C55.408 34.6127 55.502 34.2365 55.6898 33.9543C55.8776 33.6722 56.0654 33.39 56.4411 33.2959C56.7228 33.1078 57.0985 33.0138 57.662 33.0138C58.1315 33.0138 58.5072 33.1078 58.7889 33.2019C59.0706 33.39 59.3524 33.5781 59.4463 33.8603C59.6341 34.1424 59.728 34.4246 59.728 34.8949C59.728 35.3652 59.6341 35.6473 59.4463 36.0236C59.2585 36.3057 59.0706 36.5879 58.695 36.776C58.3193 36.8701 57.9437 36.8701 57.4741 36.8701ZM57.662 36.5879C58.0376 36.5879 58.3193 36.4939 58.5072 36.2117C58.695 35.9295 58.7889 35.5533 58.7889 34.9889C58.7889 34.4246 58.695 33.9543 58.4133 33.6722C58.2254 33.39 57.9437 33.2959 57.4741 33.2959C57.0985 33.2959 56.8167 33.39 56.535 33.6722C56.3472 33.9543 56.2533 34.3305 56.2533 34.8949C56.2533 35.2711 56.3472 35.6473 56.4411 35.8355C56.535 36.1176 56.7228 36.3057 56.9106 36.3998C57.0985 36.5879 57.2863 36.5879 57.662 36.5879ZM62.9211 36.8701V36.682H63.1089C63.2028 36.682 63.2967 36.682 63.3906 36.5879C63.3906 36.5879 63.4846 36.3998 63.4846 36.2117C63.4846 35.7414 63.4846 35.2711 63.4846 34.8008C63.4846 34.5187 63.4846 34.2365 63.4846 33.8603C63.4846 33.6722 63.4846 33.484 63.4846 33.484C63.4846 33.484 63.4846 33.484 63.3906 33.39C63.3906 33.39 63.2028 33.39 63.015 33.39V33.2019C63.2028 33.2019 63.4846 33.2019 63.6724 33.2019C63.9541 33.2019 64.1419 33.2019 64.4237 33.2019C64.5176 33.39 64.6115 33.6722 64.7054 33.8603C64.7993 34.0484 65.0811 34.7068 65.6446 35.9295C66.302 34.7068 66.6776 33.7662 66.9593 33.2019C67.1472 33.2019 67.4289 33.2019 67.6167 33.2019C67.8046 33.2019 68.0863 33.2019 68.2741 33.2019V33.39C67.9924 33.39 67.8985 33.39 67.8985 33.484C67.8985 33.484 67.8046 33.5781 67.8046 33.7662C67.8046 33.9543 67.8046 34.4246 67.8046 35.083C67.8046 35.3652 67.8046 35.7414 67.8046 36.1176C67.8046 36.4939 67.8046 36.682 67.8046 36.682C67.8046 36.682 67.8046 36.776 67.8985 36.776C67.8985 36.776 68.0863 36.776 68.2741 36.8701V37.0582C67.9924 37.0582 67.7106 37.0582 67.5228 37.0582C67.335 37.0582 66.9593 37.0582 66.5837 37.0582V36.682H66.7715C66.8654 36.682 66.9593 36.682 66.9593 36.5879C66.9593 36.5879 67.0533 36.4939 67.0533 36.3057C67.0533 36.2117 67.0533 35.8355 67.0533 35.3652V33.7662C66.7715 34.3306 66.3959 35.083 66.0202 35.9295C65.8324 36.3057 65.7385 36.5879 65.6446 36.8701H65.4567C65.3628 36.5879 65.175 36.1176 64.8933 35.6473L63.9541 33.6722V34.0484C63.9541 35.083 63.9541 35.7414 63.9541 36.1176C63.9541 36.3057 63.9541 36.3998 64.048 36.3998C64.048 36.3998 64.2359 36.4939 64.4237 36.4939V36.682C64.2359 36.682 64.048 36.682 63.8602 36.682C63.3906 36.8701 63.1089 36.8701 62.9211 36.8701ZM75.5993 33.2959C75.3176 33.2959 75.2237 33.2959 75.1298 33.39C75.0359 33.39 75.0359 33.8603 75.0359 34.7068C75.0359 34.7068 75.0359 34.9889 75.0359 35.3652V36.2117C75.0359 36.3998 75.0359 36.4939 75.0359 36.5879V36.682C75.0359 36.682 75.0359 36.682 75.1298 36.682C75.1298 36.682 75.3176 36.682 75.5054 36.682V36.8701C75.5054 36.8701 75.3176 36.8701 75.2237 36.8701C75.0359 36.8701 74.848 36.8701 74.6602 36.8701C74.3785 36.8701 74.0967 36.8701 73.7211 36.8701V36.682C74.0028 36.682 74.0967 36.682 74.0967 36.5879C74.0967 36.5879 74.1906 36.3998 74.1906 36.1176C74.1906 35.8355 74.1906 35.2711 74.1906 34.3305V33.39H73.815H73.7211H72.9698H72.5002C72.5002 33.484 72.5002 33.5781 72.5002 33.7662C72.5002 34.0484 72.5002 34.3305 72.5002 34.5187C72.5002 35.4592 72.5002 35.9295 72.5002 36.2117C72.5002 36.3998 72.5002 36.5879 72.5941 36.5879C72.5941 36.5879 72.7819 36.682 72.9698 36.682V36.8701C72.9698 36.8701 72.8759 36.8701 72.782 36.8701C72.5002 36.8701 72.2185 36.8701 72.1246 36.8701C72.0306 36.8701 71.7489 36.8701 71.1854 36.8701V36.682C71.4672 36.682 71.5611 36.682 71.5611 36.5879C71.5611 36.5879 71.655 36.4939 71.655 36.3998C71.655 36.3057 71.655 36.1176 71.655 35.6473C71.655 34.5187 71.655 33.8603 71.655 33.6722C71.655 33.484 71.655 33.2959 71.5611 33.2959C71.5611 33.2959 71.3733 33.2019 71.0915 33.2019V33.0138C71.5611 33.0138 71.8428 33.0138 72.1246 33.0138H74.3785C74.5663 33.0138 74.942 33.0138 75.4115 33.0138V33.2959H75.5993ZM78.7924 36.5879C78.9802 36.5879 79.0741 36.5879 79.0741 36.4939C79.0741 36.4939 79.168 36.3998 79.168 36.3057C79.262 36.0236 79.4498 35.7414 79.6376 35.3652L80.5767 33.0138H80.9524L82.1733 35.9295C82.3611 36.3057 82.455 36.4939 82.455 36.4939C82.455 36.4939 82.6428 36.5879 82.8306 36.5879V36.8701C82.5489 36.8701 82.2672 36.8701 81.9854 36.8701C81.7037 36.8701 81.328 36.8701 81.0463 36.8701V36.5879C81.2341 36.5879 81.422 36.5879 81.422 36.5879C81.422 36.5879 81.5159 36.5879 81.5159 36.4939C81.5159 36.4939 81.5159 36.3057 81.422 36.1176L81.2341 35.6473C81.0463 35.6473 80.7646 35.6473 80.4828 35.6473C80.2011 35.6473 80.0133 35.6473 79.8254 35.6473L79.7315 35.9295C79.7315 36.0236 79.6376 36.1176 79.6376 36.3057V36.3998C79.6376 36.3998 79.6376 36.4939 79.7315 36.4939C79.7315 36.4939 79.9193 36.4939 80.1072 36.5879V36.8701C79.9193 36.8701 79.7315 36.8701 79.4498 36.8701C79.168 36.8701 78.9802 36.8701 78.8863 36.8701V36.5879H78.7924ZM80.5767 33.9543L80.0133 35.3652C80.2011 35.3652 80.3889 35.3652 80.5767 35.3652C80.7646 35.3652 80.9524 35.3652 81.1402 35.3652L80.5767 33.9543ZM86.0237 36.8701V36.682C86.3054 36.682 86.3993 36.682 86.3993 36.5879L86.4933 36.4939C86.4933 36.3998 86.4933 36.1176 86.4933 35.7414V34.2365C86.4933 33.7662 86.4933 33.484 86.4933 33.39V33.2959C86.4933 33.2959 86.3054 33.2959 86.1176 33.2019V33.0138C86.4933 33.0138 86.775 33.0138 86.9628 33.0138C87.3385 33.0138 87.6202 33.0138 87.9019 33.0138V33.2019C87.7141 33.2019 87.5263 33.2019 87.5263 33.2959C87.5263 33.2959 87.5263 33.2959 87.4324 33.39C87.4324 33.39 87.4324 33.484 87.4324 33.6722C87.4324 33.9543 87.4324 34.2365 87.4324 34.4246V34.6127C87.6202 34.6127 87.9019 34.6127 88.3715 34.6127C88.7472 34.6127 89.0289 34.6127 89.2167 34.6127C89.2167 34.0484 89.2167 33.6722 89.2167 33.484C89.2167 33.39 89.2167 33.2959 89.1228 33.2959C89.1228 33.2959 88.935 33.2019 88.7472 33.2019V33.0138C89.2167 33.0138 89.4985 33.0138 89.6863 33.0138C89.968 33.0138 90.2498 33.0138 90.5315 33.0138V33.2019C90.3437 33.2019 90.1559 33.2019 90.1559 33.2959C90.1559 33.2959 90.1559 33.2959 90.062 33.39C90.062 33.39 90.062 33.5781 90.062 33.8603C90.062 34.2365 90.062 34.6127 90.062 34.8008V36.0236C90.062 36.3057 90.062 36.4939 90.062 36.4939C90.062 36.4939 90.062 36.5879 90.1559 36.5879C90.1559 36.5879 90.3437 36.5879 90.5315 36.682V36.8701H90.2498C90.062 36.8701 89.8741 36.8701 89.6863 36.8701C89.4046 36.8701 89.1228 36.8701 88.7472 36.8701V36.682C89.0289 36.682 89.1228 36.682 89.1228 36.5879C89.1228 36.5879 89.2167 36.4939 89.2167 36.3998C89.2167 36.2117 89.2167 35.7414 89.2167 35.083C89.0289 35.083 88.7472 35.083 88.5593 35.083C88.1837 35.083 87.808 35.083 87.5263 35.083V35.2711C87.5263 35.7414 87.5263 36.1176 87.5263 36.3057C87.5263 36.4939 87.5263 36.5879 87.6202 36.5879C87.6202 36.5879 87.808 36.682 87.9959 36.682V36.8701H87.7141C87.5263 36.8701 87.3385 36.8701 87.1507 36.8701H86.0237ZM97.8567 33.0138V33.2019C97.575 33.2019 97.4811 33.2019 97.3872 33.2959C97.3872 33.2959 97.2933 33.7662 97.2933 34.5187C97.2933 35.3652 97.2933 35.9295 97.2933 36.1176C97.2933 36.3057 97.2933 36.4939 97.3872 36.4939C97.3872 36.4939 97.575 36.5879 97.8567 36.5879V36.776C97.8567 36.776 97.7628 36.776 97.6689 36.776C97.3872 36.776 97.1054 36.776 97.0115 36.776C96.9176 36.776 96.6359 36.776 96.0724 36.776V36.682C96.3541 36.682 96.448 36.682 96.542 36.5879C96.542 36.5879 96.6359 36.3057 96.6359 35.7414V34.2365C96.6359 34.1424 96.6359 33.9543 96.6359 33.7662L96.2602 34.3305C95.7906 35.1771 95.415 35.8355 95.2272 36.1176C95.0393 36.3998 94.8515 36.682 94.5698 36.9641C94.288 36.9641 94.1941 37.0582 94.1002 37.0582C94.1002 36.776 94.1002 36.0236 94.1002 34.8949C94.1002 34.0484 94.1002 33.5781 94.1002 33.484C94.1002 33.39 93.9124 33.39 93.6306 33.39V33.2019C94.0063 33.2019 94.288 33.2019 94.382 33.2019C94.7576 33.2019 95.1333 33.2019 95.415 33.2019V33.39C95.1333 33.39 95.0393 33.39 94.9454 33.484C94.9454 33.484 94.8515 33.9543 94.8515 34.7068C94.8515 34.8008 94.8515 35.3652 94.8515 36.1176L95.2272 35.5533C95.7906 34.7068 96.2602 33.8603 96.6359 33.2019H96.9176C97.1993 33.0138 97.4811 33.0138 97.8567 33.0138ZM105.37 33.0138V33.2019C105.088 33.2019 104.994 33.2019 104.9 33.2959C104.9 33.2959 104.806 33.7662 104.806 34.5187C104.806 35.3652 104.806 35.9295 104.806 36.1176C104.806 36.3057 104.806 36.4939 104.9 36.4939C104.9 36.4939 105.088 36.5879 105.37 36.5879V36.776C105.37 36.776 105.276 36.776 105.182 36.776C104.9 36.776 104.618 36.776 104.525 36.776C104.431 36.776 104.149 36.776 103.585 36.776V36.682C103.867 36.682 103.961 36.682 104.055 36.5879C104.055 36.5879 104.149 36.3057 104.149 35.7414V34.2365C104.149 34.1424 104.149 33.9543 104.149 33.7662L103.773 34.3305C103.304 35.1771 102.928 35.8355 102.74 36.1176C102.552 36.3998 102.365 36.682 102.083 36.9641C101.801 36.9641 101.707 37.0582 101.613 37.0582C101.613 36.776 101.613 36.0236 101.613 34.8949C101.613 34.0484 101.613 33.5781 101.613 33.484C101.613 33.39 101.425 33.39 101.144 33.39V33.2019C101.519 33.2019 101.801 33.2019 101.895 33.2019C102.271 33.2019 102.646 33.2019 102.928 33.2019V33.39C102.646 33.39 102.552 33.39 102.458 33.484C102.458 33.484 102.365 33.9543 102.365 34.7068C102.365 34.8008 102.365 35.3652 102.365 36.1176L102.74 35.5533C103.304 34.7068 103.773 33.8603 104.149 33.2019H104.431C104.712 33.0138 105.088 33.0138 105.37 33.0138ZM104.337 32.2613C104.149 32.3554 104.055 32.3554 103.961 32.4494C103.398 32.4494 102.928 32.3554 102.365 32.2613V32.1672C102.552 32.0732 102.74 31.9791 102.928 31.791C103.304 31.9791 103.773 32.1672 104.337 32.2613Z" fill="#0A0A0A"/>
</g>
<defs>
<clipPath id="clip0">
<rect width="108" height="38.093" fill="white"/>
</clipPath>
</defs>
</svg>
