<svg width="32" height="32" viewBox="0 0 32 32" fill="none" xmlns="http://www.w3.org/2000/svg">
<path fill-rule="evenodd" clip-rule="evenodd" d="M16.0049 0C12.4024 0 9.08815 1.15315 6.35026 3.17117H18.5987L7.35896 29.5495C9.80866 31.1351 12.8348 32 15.8608 32C18.0223 32 20.1838 31.5676 22.0571 30.7027V25.2252H11.826L22.0571 1.15315C20.1838 0.288288 18.1664 0 16.0049 0ZM27.1006 4.46847V20.7568H31.2795C31.7118 19.3153 32 17.5856 32 16C32 11.3874 30.1267 7.35135 27.1006 4.46847ZM28.9739 25.2252H26.9565V27.5315C27.8211 26.8108 28.3975 26.0901 28.9739 25.2252ZM3.75647 26.3784L11.682 7.63964H2.31547C0.874478 10.0901 0.00987976 12.973 0.00987976 16C-0.13422 19.8919 1.30678 23.6396 3.75647 26.3784ZM22.0571 20.7568V12.6847L18.5987 20.7568H22.0571Z" fill="#FFFFFF"/>
</svg>
