<svg width="16" height="16" viewBox="0 0 16 16" fill="none" xmlns="http://www.w3.org/2000/svg">
<path d="M14.5833 1.5H14.1667C13.9365 1.5 13.75 1.68646 13.75 1.91667V2.25365L1.23125 5.15651C1.18776 4.97292 1.03021 4.83333 0.833333 4.83333H0.416667C0.186458 4.83333 0 5.01979 0 5.25V9.41667C0 9.64687 0.186458 9.83333 0.416667 9.83333H0.833333C1.03021 9.83333 1.18776 9.69375 1.23125 9.51016L4.2263 10.2047C4.19583 10.3552 4.16693 10.5068 4.16693 10.6667C4.16693 12.0474 5.2862 13.1667 6.66693 13.1667C7.81771 13.1667 8.77604 12.3857 9.06484 11.3266L13.75 12.413V12.75C13.75 12.9802 13.9365 13.1667 14.1667 13.1667H14.5833C14.8135 13.1667 15 12.9802 15 12.75V1.91667C15 1.68646 14.8135 1.5 14.5833 1.5ZM6.66667 11.9167C5.97734 11.9167 5.41667 11.356 5.41667 10.6667C5.41667 10.6036 5.4401 10.5484 5.44922 10.4883L7.85156 11.0453C7.6901 11.5487 7.22318 11.9167 6.66667 11.9167ZM1.25 8.23177V6.4349L13.75 3.5362V11.1302L1.25 8.23177Z" fill="#0A0A0A"/>
</svg>
