<svg width="88" height="88" viewBox="0 0 88 88" fill="none" xmlns="http://www.w3.org/2000/svg">
<rect width="88" height="88" rx="44" fill="#F4F4F4"/>
<path d="M63.75 24.5H62.5C61.8094 24.5 61.25 25.0594 61.25 25.75V26.7609L23.6937 35.4695C23.5633 34.9187 23.0906 34.5 22.5 34.5H21.25C20.5594 34.5 20 35.0594 20 35.75V48.25C20 48.9406 20.5594 49.5 21.25 49.5H22.5C23.0906 49.5 23.5633 49.0812 23.6937 48.5305L32.6789 50.6141C32.5875 51.0656 32.5008 51.5203 32.5008 52C32.5008 56.1422 35.8586 59.5 40.0008 59.5C43.4531 59.5 46.3281 57.157 47.1945 53.9797L61.25 57.2391V58.25C61.25 58.9406 61.8094 59.5 62.5 59.5H63.75C64.4406 59.5 65 58.9406 65 58.25V25.75C65 25.0594 64.4406 24.5 63.75 24.5ZM40 55.75C37.932 55.75 36.25 54.068 36.25 52C36.25 51.8109 36.3203 51.6453 36.3477 51.4648L43.5547 53.1359C43.0703 54.6461 41.6695 55.75 40 55.75ZM23.75 44.6953V39.3047L61.25 30.6086V53.3906L23.75 44.6953Z" fill="#0A0A0A"/>
</svg>
