<svg width="16" height="16" viewBox="0 0 16 16" fill="none" xmlns="http://www.w3.org/2000/svg">
<path d="M2.3125 2.75L13.6875 2.75C14.4124 2.75 15 3.33762 15 4.0625L15 11.9375C15 12.6624 14.4124 13.25 13.6875 13.25L2.3125 13.25C1.58762 13.25 1 12.6624 1 11.9375L1 4.0625C1 3.33762 1.58762 2.75 2.3125 2.75ZM2.47656 11.9375L13.5234 11.9375C13.5669 11.9375 13.6087 11.9202 13.6394 11.8894C13.6702 11.8587 13.6875 11.8169 13.6875 11.7734L13.6875 4.22656C13.6875 4.18305 13.6702 4.14132 13.6394 4.11055C13.6087 4.07979 13.5669 4.0625 13.5234 4.0625L2.47656 4.0625C2.43305 4.0625 2.39132 4.07979 2.36055 4.11055C2.32979 4.14132 2.3125 4.18305 2.3125 4.22656L2.3125 11.7734C2.3125 11.8169 2.32979 11.8587 2.36055 11.8894C2.39132 11.9202 2.43305 11.9375 2.47656 11.9375ZM11.5 5.15625C12.1041 5.15625 12.5938 5.64595 12.5938 6.25C12.5938 6.85405 12.1041 7.34375 11.5 7.34375C10.8959 7.34375 10.4062 6.85405 10.4062 6.25C10.4062 5.64595 10.8959 5.15625 11.5 5.15625ZM12.375 10.625L3.625 10.625V8.4375L6.01799 6.04451C6.14612 5.91638 6.35388 5.91638 6.48204 6.04451L9.75 9.3125L10.8305 8.23201C10.9586 8.10388 11.1664 8.10388 11.2945 8.23201L12.375 9.3125L12.375 10.625Z" fill="white"/>
</svg>
