<svg width="16" height="16" viewBox="0 0 16 16" fill="none" xmlns="http://www.w3.org/2000/svg">
<g clip-path="url(#clip0)">
<path d="M8.18435 1.11113L8.80307 1.73708C8.94951 1.88523 8.94951 2.12544 8.80307 2.27362L3.95526 7.17801H14.625C14.8321 7.17801 15 7.34787 15 7.55739V8.4426C15 8.65212 14.8321 8.82198 14.625 8.82198H3.95526L8.80307 13.7264C8.94951 13.8746 8.94951 14.1148 8.80307 14.2629L8.18435 14.8889C8.03791 15.037 7.80048 15.037 7.65401 14.8889L1.10983 8.26828C0.96339 8.12013 0.96339 7.87992 1.10983 7.73174L7.65404 1.11113C7.80048 0.962955 8.03791 0.962955 8.18435 1.11113Z" fill="white"/>
</g>
<defs>
<clipPath id="clip0">
<rect width="16" height="16" fill="white" transform="matrix(-1 0 0 1 16 0)"/>
</clipPath>
</defs>
</svg>
