<svg width="16" height="16" viewBox="0 0 16 16" fill="none" xmlns="http://www.w3.org/2000/svg">
<path d="M13.6875 3.625H11.5V2.3125C11.5 1.58789 10.9121 1 10.1875 1H5.8125C5.08789 1 4.5 1.58789 4.5 2.3125V3.625H2.3125C1.58789 3.625 1 4.21289 1 4.9375V11.9375C1 12.6621 1.58789 13.25 2.3125 13.25H13.6875C14.4121 13.25 15 12.6621 15 11.9375V4.9375C15 4.21289 14.4121 3.625 13.6875 3.625ZM5.8125 2.3125H10.1875V3.625H5.8125V2.3125ZM2.3125 11.9375V4.9375H4.5V11.9375H2.3125ZM5.8125 11.9375V4.9375H10.1875V11.9375H5.8125ZM13.6875 11.9375H11.5V4.9375H13.6875V11.9375Z" fill="#0A0A0A"/>
</svg>
