<svg width="32" height="32" viewBox="0 0 32 32" fill="none" xmlns="http://www.w3.org/2000/svg">
<path d="M25.4986 10.8816C25.6497 10.3737 25.4986 10 24.7716 10H22.3661C21.7535 10 21.4717 10.3209 21.3206 10.6784C21.3206 10.6784 20.0954 13.6481 18.3637 15.5737C17.8042 16.1303 17.5469 16.3091 17.2406 16.3091C17.0895 16.3091 16.8567 16.1303 16.8567 15.6225V10.8816C16.8567 10.2722 16.6852 10 16.1787 10H12.3969C12.013 10 11.7843 10.2844 11.7843 10.5484C11.7843 11.1253 12.6501 11.2594 12.7399 12.8844V16.4106C12.7399 17.1825 12.6011 17.3247 12.2948 17.3247C11.478 17.3247 9.49309 14.3428 8.31687 10.9303C8.08 10.2681 7.84721 10 7.23051 10H4.82498C4.13886 10 4 10.3209 4 10.6784C4 11.3122 4.81682 14.4606 7.80228 18.6206C9.79123 21.4603 12.5929 23 15.1414 23C16.6729 23 16.8608 22.6587 16.8608 22.0697C16.8608 19.3559 16.7219 19.1 17.4897 19.1C17.845 19.1 18.4577 19.2787 19.8871 20.6478C21.5207 22.2728 21.7903 23 22.7051 23H25.1106C25.7967 23 26.1439 22.6587 25.9438 21.9844C25.4864 20.5666 22.3947 17.6497 22.2558 17.4547C21.9005 16.9997 22.0026 16.7966 22.2558 16.3903C22.2599 16.3863 25.1964 12.275 25.4986 10.8816Z" fill="#0A0A0A"/>
</svg>
