<svg width="16" height="16" viewBox="0 0 16 16" fill="none" xmlns="http://www.w3.org/2000/svg">
<g clip-path="url(#clip0)">
<path d="M2.99954 2.75919L3.00465 3.6393C3.00586 3.8476 3.17571 4.01746 3.38404 4.01869L10.2799 4.0587L2.73524 11.6033C2.5888 11.7498 2.59019 11.9886 2.73834 12.1368L3.36428 12.7627C3.51243 12.9109 3.75127 12.9123 3.8977 12.7658L11.4423 5.22117L11.4824 12.117C11.4836 12.3253 11.6534 12.4952 11.8618 12.4964L12.7419 12.5015C12.9502 12.5027 13.1181 12.3349 13.1169 12.1265L13.0628 2.81762C13.0616 2.60931 12.8918 2.43946 12.6835 2.43823L3.37452 2.38421C3.1662 2.38297 2.99831 2.55087 2.99954 2.75919Z" fill="white"/>
</g>
<defs>
<clipPath id="clip0">
<rect width="16" height="16" fill="white"/>
</clipPath>
</defs>
</svg>
